<?xml version="1.0" encoding="utf-8"?>
<!-- Generator: Adobe Illustrator 17.1.0, SVG Export Plug-In . SVG Version: 6.00 Build 0)  -->
<!DOCTYPE svg PUBLIC "-//W3C//DTD SVG 1.1//EN" "http://www.w3.org/Graphics/SVG/1.1/DTD/svg11.dtd">
<svg version="1.1" id="Layer_1" xmlns="http://www.w3.org/2000/svg" xmlns:xlink="http://www.w3.org/1999/xlink" x="0px" y="0px"
	 viewBox="0 0 255.1 141.7" enable-background="new 0 0 255.1 141.7" xml:space="preserve">
<g>
	<path fill="#EF6A19" d="M62.5,57.5c0.2,0.5,0.4,1,0.5,1.5c0.1,0.3,0.1,0.5,0.2,0.8c0,0.1,0,0.3,0.1,0.4c0,0.1,0,0.3,0,0.4
		c0,0.1,0,0.3,0,0.4c0,0.1,0,0.3,0,0.4c0,0.1,0,0.3,0,0.4l0,0.4l-0.1,0.8c0,0.3-0.1,0.5-0.1,0.8v0l0,0c0,0-0.1,0.1-0.1,0.2
		c0,0.1,0,0.1,0,0.2c0,0.1,0,0.2,0,0.3c0,0,0,0.1,0,0.2c0,0,0,0.1-0.1,0.1l0,0c0,0,0,0,0,0l0,0l0,0l0,0v0l0,0c0,0,0,0.1-0.1,0.1
		l-0.1,0.1c0,0.1-0.1,0.1-0.1,0.2c-0.1,0.2-0.2,0.3-0.2,0.5c0,0.1,0,0.2-0.1,0.2c0,0.1,0,0.2,0,0.3c0,0.2,0,0.3,0,0.5
		c0,0.1,0,0.2,0,0.2c0,0.1,0,0.2,0,0.2l0.1,0.2l0.1,0.2l0,0l0,0.1l0,0.1l-0.5,1l-0.5,1l-0.5,1c-0.2,0.3-0.3,0.7-0.5,1L60,72.4
		l-0.3,0.5c-0.1,0.1-0.3,0.3-0.4,0.4c-0.1,0.1-0.3,0.2-0.4,0.4c-0.1,0.1-0.3,0.2-0.5,0.3c-0.2,0.1-0.3,0.2-0.5,0.3
		c-0.2,0.1-0.3,0.2-0.5,0.3c-0.1,0.1-0.3,0.2-0.4,0.3l-0.1-0.1c0.1-0.1,0.3-0.3,0.5-0.4c0.2-0.1,0.3-0.2,0.5-0.3
		c0.2-0.1,0.3-0.2,0.5-0.3c0.1-0.1,0.3-0.2,0.5-0.3c0.1-0.1,0.3-0.2,0.4-0.4c0.1-0.1,0.2-0.3,0.4-0.4l0.3-0.5l0.3-0.5
		c0.2-0.3,0.3-0.7,0.5-1l0.5-1l0.5-1l0.5-1v0.2l0,0L62,67.6l-0.1-0.3c0-0.1,0-0.2,0-0.3s0-0.2,0-0.3c0-0.2,0-0.4,0-0.6
		c0-0.1,0-0.2,0.1-0.3c0-0.1,0-0.2,0.1-0.3c0.1-0.2,0.2-0.3,0.2-0.5c0-0.1,0.1-0.2,0.1-0.2l0.1-0.1c0,0,0.1-0.1,0.1-0.1l0,0v0l0,0
		l0,0l0,0h0l0,0c0,0,0,0,0,0c0,0,0,0,0-0.1c0-0.1,0-0.2,0-0.3c0,0,0-0.1,0-0.2c0-0.1,0-0.1,0.1-0.2c0.1-0.1,0.1-0.2,0.2-0.2l0,0.1
		l0-0.4c0-0.1,0-0.3,0-0.4l0.1-0.8l0-0.4c0-0.1,0-0.3,0-0.4c0-0.1,0-0.3,0-0.4c0-0.1,0-0.3,0-0.4c0-0.1,0-0.3,0-0.4
		c0-0.1,0-0.3-0.1-0.4c0-0.3-0.1-0.5-0.2-0.7c-0.1-0.5-0.3-1-0.5-1.5L62.5,57.5z"/>
</g>
<g>
	<path fill="#EF6A19" d="M58.2,77.2c0.7-0.4,1.4-0.8,2-1.2c0.2-0.1,0.3-0.2,0.5-0.3c0.2-0.1,0.3-0.2,0.5-0.3c0.1,0,0.1-0.1,0.2-0.2
		l0.2-0.2l0.4-0.4c0.3-0.3,0.5-0.6,0.8-0.8c0.3-0.3,0.6-0.5,0.8-0.8l0.2-0.2l0.2-0.2l0.2-0.2l0.2-0.2c0.2-0.3,0.5-0.6,0.8-0.9
		l0.1-0.1l0.1,0.1l0,0c0.5,0.5,1,0.9,1.5,1.4c0.5,0.5,1,0.9,1.4,1.4c0.5,0.5,0.9,1,1.3,1.5c0.1,0.1,0.2,0.3,0.3,0.5c0,0,0,0,0,0.1
		V76l0,0.1l0,0.2l0.1,0.5l0,0.2l0,0.1l0,0v0l0,0l0,0c0,0,0,0,0,0c0,0-0.1,0-0.1,0l0.1,0.1c0,0-0.1,0-0.1,0s0,0,0,0c0,0,0,0,0,0
		c0,0,0,0,0,0l0,0l0-0.1l0-0.1L69.9,77l-0.1-0.5l0-0.2l0-0.1l0-0.1c0,0,0,0,0,0c-0.1-0.1-0.2-0.3-0.3-0.4c-0.4-0.5-0.9-1-1.4-1.5
		l-1.4-1.4l-1.4-1.4l0,0l0.2,0c-0.2,0.3-0.5,0.6-0.7,1l-0.2,0.2l-0.2,0.2l-0.2,0.2l-0.2,0.2c-0.3,0.3-0.5,0.5-0.8,0.8
		c-0.3,0.3-0.6,0.5-0.8,0.8l-0.4,0.4c-0.1,0.1-0.3,0.3-0.4,0.4c-0.2,0.1-0.3,0.2-0.5,0.3c-0.2,0.1-0.3,0.2-0.5,0.3
		c-0.3,0.2-0.7,0.4-1,0.5C58.9,76.9,58.6,77.1,58.2,77.2L58.2,77.2z"/>
</g>
<g>
	<path fill="#EF6A19" d="M77.9,85.8c0-0.1-0.1-0.2-0.1-0.2l-1.5,0c-0.3,0-0.6-0.2-0.9-0.4c-0.3-0.2-0.5-0.4-0.6-0.6
		c-0.1-0.2-0.2-0.5-0.2-0.7c0-0.1-0.2,0-0.4,0.2c-0.3,0.2-0.8-4.5-0.8-5.2c0-0.7-0.3-1.2-0.4-1.9c0,0-0.2-1.4-0.3-1.9
		c-0.1-0.5-0.5-1.4-1-2.3l-0.1-0.3l3.7-7c0,0,0,0,0,0c0.1,0,0.4-0.7,0.5-0.9c0.1,0,0.3,0,0.5,0c0.5-0.4,0.7-0.9,0.8-1.6
		c0,0-0.1-0.1-0.2-0.2c0.1-0.1,0.3-0.2,0.4-0.3c0.1-0.1-0.4-0.7-0.6-0.7c-0.2,0-0.8,0.5-0.9,0.6c0,0-0.1,0-0.1,0
		c-0.3,0-0.8,0-1.2,0.1c-0.7-0.2-2.5-1.9-4.3-3.7l-0.9-3.7c-0.1-0.5-0.4-1-0.7-1.4c-0.2-0.3-0.5-0.5-0.9-0.6L67.2,53
		c0.1-0.5,0.4-1,0.7-1.6c0.5,0.1,1,0.1,1.3,0c0.3-0.5,0.5-1,0.4-1.4c0.2,0,0.5-0.1,0.5-0.3l-0.4-1c0-0.3,0.2-0.7,0-1.1
		c-0.2-0.4-0.5-1.3-1.5-1.9c-0.7-0.4-1.8-0.4-2.7,0c-1,0.4-1.5,1.6-1.3,2.6c0.2,1,0.8,1.9,0.8,2.2c0.1,0.3,0.1,0.8-0.1,1.1
		c-0.1,0.4-0.2,0.5-0.5,0.7c-1.4,0.4-3.2,3-4,4.1c-0.8,1.1-2.6,2.9-3.1,3.6c-0.5,0.7-1.4,2.2-1.4,2.2c-0.2,0.1-0.4,0.2-0.7,0.4
		c-0.2,0.2-0.3,0.5-0.5,0.7c-0.2,0.1-1,0.3-1.3,0.5c-0.3,0.2-0.6,0.5-0.6,0.5c0,0.1,0,0.2,0,0.3l0.2,0.1l0.1,0
		c0.1,0-0.1,0.2-0.2,0.3c-0.3,0.2-0.2,0.3-0.2,0.5c0,0.1,0.1,0.1,0.2,0.1c0.1,0,0.2,0,0.3-0.1l0.7-0.4c0,0-0.9,0.7-1.2,1.2
		c-0.1,0.1,0,0.4,0.3,0.3c0,0,0.9-0.9,1.3-0.9c0.1,0,0.2,0,0.3,0c-0.2,0.2-0.6,0.6-0.7,0.8c-0.1,0.2-0.1,0.5-0.1,0.6L36.1,85.3
		c-0.1,0-0.2-0.1-0.3-0.1c-0.1,0-0.1,0.5-0.4,1c0.4-0.1,0.7-0.2,1-0.3c0-0.1,0-0.2-0.1-0.3l17.9-17.8c0.1,0,0.3,0.1,0.3,0.1
		c0.1,0,0.9-0.6,1.2-1.1s1.4-1.2,1.5-1.2s0.4-0.5,0-1.1c-0.1-0.1-0.2-0.1-0.3-0.1c0.1-0.1,0.2-0.2,0.3-0.4l0.1-0.5
		c0.5-0.5,1.3-1.4,2.1-2.4l1-1.3l2.2-1.9l2.2-1.9c0.3,1.2,0.4,2.5,0.1,4c-0.1,0.6,0,2,0.3,3.3c0,0.2-0.6,0.7-0.6,1
		c0,0.3,0.3,0.9,0.7,1.4c0.4,0.5-1.2,0.1-2.8-0.3l-0.1-0.5c-0.2,0.1-0.3,0.3-0.4,0.5c0,0.2,0.1,0.3,0.3,0.3c0.7,0.3,1.6,0.5,2.6,0.7
		c1,0.1,2,0.1,3,0.1c0.3,0.2-1.4,0.3-3,0.3c-0.3,0,0.7,1.6,1.2,2.6l0.3,0.2l0.1,0.3l0.6,0.6l0,0.4c0,0.1,0.2,0.1,0.6,0.1
		c0.1,0,0.1,0.2,0,0.5c0,0.1,0.1,0,0.3,0c0.1,0,0.1,0.2,0,0.5c0,0.1,0.2-0.1,0.6-0.2c0.1,0.1-0.4,0.4-0.3,0.5c0,0.1,0.4,0.1,0.4,0.1
		c0.1,0,0,0.1-0.1,0.3c0,0.1,0.1,0.1,0.4-0.1c0.2-0.1,0.8,1.2,1.4,2.3l1.4,2.1c0.1,0,0.2,0,0.2,0.1c0,0.1,0,0.1-0.1,0.1l-1.8,0
		l-0.3,0c0,0.9-0.1,1.8,0.1,2.3c0.3,0.9,1.9,4.9,1.9,5c0,0.1-0.2,0.3-0.2,0.3c-0.1,0,0,1,0,1.8c0,0.4,0.1,0.6,0.4,0.8
		c0.1,0,0.2,0.1,0.3,0.1l1.6,0c0.2,0,0.3-0.2,0.4-0.2c0.1,0,2.2,0,2.2,0c0.6-0.1,1-0.2,1.3-0.4C78.1,86.6,78,86.2,77.9,85.8z
		 M56.3,66c-0.1,0.1-1.8,1.5-1.8,1.5c0,0-0.2-0.1-0.2-0.3c0-0.1,1.7-1.4,1.9-1.5C56.4,65.8,56.4,65.9,56.3,66z M69.8,68.7l-1.5-2.3
		l-0.4-0.8c0-0.6,0.1-1.4,0.3-2.4c0.3-0.8,0.5-1.8,0.6-2.9c0.8,1.2,2.9,2.5,5.1,3.7l0.5,0.2l0.6,0c-0.1,0.3-0.3,0.8-0.3,0.9
		c0,0,0,0,0,0L71.3,72L69.8,68.7z"/>
	<path fill="#EF6A19" d="M59.9,76.2c-3.3-0.5-2.7-1.6-2.7-1.6s-0.4,0.2-1,0.6s-3.5,4.6-3.6,4.7c-0.1,0.1-0.4,0.1-0.7,0.1
		s-1.4,1-1.6,1.6s0.5,1.5,1,1.7c0.5,0.3,1.1,2.2,1.5,2.5c0.4,0.3,1.9,0.2,2,0.2s0.5-0.2,0.3-0.8c-0.2-0.7-1,0-1.2-1.2
		c-0.3-1.2,0.2-1.4,0.8-1.7c0-0.2-0.1-0.3-0.6-0.6c-0.5-0.3,2.1-2.6,3-3.3c0.9-0.7,1.3-1.4,1.3-1.4l1.7-0.9
		C60,76.3,60,76.2,59.9,76.2z"/>
	<polygon fill="#EF6A19" points="64.9,84.4 65.1,84.5 69.7,76 69.4,75.6 	"/>
</g>
<path fill="#008080" d="M103.2,90.8c0,0-1.1,0.5-1.8,0.6c-0.3,0.1-0.7,0.2-1.2,0.4c-0.5,0.1-1,0.3-1.6,0.4c-1.2,0.3-2.6,0.7-4.3,1
	c-0.4,0.1-0.9,0.2-1.3,0.3c-0.5,0.1-0.9,0.2-1.4,0.3c-1,0.1-2,0.3-3,0.4c-2.1,0.3-4.4,0.5-6.8,0.6c-2.5,0.1-5,0.1-7.7,0
	c-2.7-0.1-5.4-0.5-8.2-1c-0.7-0.1-1.5-0.3-2.3-0.5c-3.1-0.3-6.3-0.7-9.5-1.5c-0.4-0.1-0.8-0.2-1.2-0.3c-0.4-0.1-0.8-0.2-1.2-0.3
	c-0.8-0.2-1.6-0.5-2.4-0.8c-0.4-0.2-0.8-0.3-1.2-0.5c-0.4-0.1-0.7-0.2-1.1-0.4c-0.4-0.1-0.8-0.3-1.2-0.5l-0.6-0.2
	c-0.2-0.1-0.4-0.2-0.6-0.3c-1.6-0.7-3.2-1.5-4.7-2.4s-3-2-4.3-3.2s-2.5-2.7-3.4-4.2c-0.9-1.6-1.6-3.3-2-5.2
	c-0.4-1.8-0.4-3.7-0.1-5.5c0.3-1.8,0.9-3.5,1.7-5.1c0.8-1.6,3.7-7.4,13.1-12.2c8.3-4.3,19.2-4.6,19.2-4.6c-0.7,0.6-1.5,1.7,0.1,4.6
	c0,0-5.5,0.3-8,0.7c-6.2,1.1-9.2,2.8-11.7,4.2c-7.3,4.6-8,8.3-8.5,9.3c0.5-0.8,1-1.6,1.6-2.4c6-7.3,15.7-9.6,15.8-9.6
	c5.5-1.3,9.4-0.8,9.4-0.8c-1.4,1.3-3.2,4.6-3.8,4.6c0,0.1-2.2,0-5.1,0.8c-15,4.2-15.2,15-15.1,16c0.1-1,1.1-7.6,10.5-12.6
	c3-1.6,7.5-2.4,7.5-2.4c0.1,0,0.8-0.1,0.8-0.1c-1.1,1-1.4,2.2-2,3.1c-0.5,0.4-1,0.8-1.2,1.1c-0.3,0.4-0.7,0.1-1.3,0.4
	c-0.4,0.2-0.6,0.8-0.8,0.9c-0.1,0-9.2,4.2-8.8,10.9c0.1,2.4,1.1,6.5,6.8,10.7c0.8,0.6,1.8,1.1,2.8,1.7c3.9,2,9.1,3.5,10.9,4
	c2.3,0.2,5.8,0.3,7.8,0.3c0.6,0,1.3,0,1.9,0c0.6,0,1.2,0,1.8,0c1.2,0,2.3,0,3.3-0.1c1.9-0.1,9.1-0.5,10-0.6
	c-0.8,0.2-6.3,1.2-8.5,1.5c7.9-0.6,16.5-1.8,17-1.9C96.9,91,86,93.2,84.2,93.3C91.6,93.1,103.2,90.7,103.2,90.8z"/>
<g>
	
		<rect x="40.2" y="70.7" transform="matrix(0.6754 0.7374 -0.7374 0.6754 70.986 -4.3005)" fill="#FFFFFF" width="0.3" height="15.5"/>
</g>
<g>
	<polygon fill="#008080" points="87.3,71.3 82.9,71.3 82.9,61.6 79.5,61.6 79.5,84.3 82.9,84.3 82.9,74.6 87.3,74.6 87.3,84.3 
		90.7,84.3 90.7,61.6 87.3,61.6 	"/>
	<path fill="#008080" d="M98.8,61.4c-1.8,0-3.2,0.6-4.2,1.8c-0.9,1.1-1.4,2.6-1.4,4.4v10.6c0,1.8,0.5,3.3,1.4,4.4
		c1,1.2,2.4,1.8,4.2,1.8c1.8,0,3.3-0.6,4.2-1.8c0.9-1.1,1.4-2.6,1.4-4.4V67.7c0-1.8-0.5-3.3-1.4-4.4C102.1,62,100.7,61.4,98.8,61.4z
		 M96.7,67.6c0-1,0.2-1.7,0.6-2.2c0.2-0.3,0.6-0.6,1.6-0.6c1,0,1.4,0.4,1.6,0.6c0.4,0.5,0.6,1.3,0.6,2.2v10.8c0,1-0.2,1.7-0.6,2.2
		c-0.2,0.3-0.6,0.6-1.6,0.6c-1,0-1.4-0.4-1.6-0.6c-0.4-0.5-0.6-1.3-0.6-2.2V67.6z"/>
	<path fill="#008080" d="M111.8,61.6h-5.3v22.7h3.4v-8.5h1.5c1.9,0,3.4-0.5,4.3-1.5c1-1,1.5-2.5,1.5-4.4v-2.2c0-1.8-0.4-3.3-1.3-4.3
		C115.1,62.2,113.7,61.6,111.8,61.6z M109.9,64.9h1.9c1.1,0,1.5,0.4,1.5,0.5c0.3,0.5,0.5,1.2,0.5,2.1V70c0,1-0.2,1.7-0.5,2
		c-0.3,0.4-1,0.5-1.9,0.5h-1.5V64.9z"/>
	<path fill="#008080" d="M130.2,61.6h-9.5l-0.9,17.1c0,0.7-0.1,1.3-0.2,1.7c0,0.2-0.1,0.4-0.3,0.6h-2v6.1h3.4v-2.9h7.8v2.9h3.4V81
		h-1.7C130.2,81,130.2,61.6,130.2,61.6z M126.8,64.9V81h-4c0,0,0,0,0,0c0.1-0.6,0.2-1.3,0.3-2.2l0.7-13.9
		C123.9,64.9,126.8,64.9,126.8,64.9z"/>
	<polygon fill="#008080" points="138.4,71.5 137.4,74.4 137.4,61.6 134.1,61.6 134.1,84.3 137.3,84.3 140.9,73.9 142.1,70.8 
		142.1,84.3 145.4,84.3 145.4,61.6 142,61.6 	"/>
	<rect x="147.2" y="71.3" fill="#008080" width="7.5" height="3.3"/>
	<polygon fill="#008080" points="156.6,84.3 160,84.3 160,64.9 164.4,64.9 164.4,84.3 167.8,84.3 167.8,61.6 156.6,61.6 	"/>
	<path fill="#008080" d="M174,61.6l-5,22.7h3.3l1-4.6h4.8l1,4.6h3.4l-5-22.7H174z M174.1,76.5l1.7-7.7l1.7,7.7H174.1z"/>
	<path fill="#008080" d="M186.2,78.2c0,0.4,0,0.7,0,0.9c0,0.2-0.1,0.5-0.1,0.8c0,0.3-0.1,0.4-0.1,0.5c-0.1,0.1-0.2,0.2-0.3,0.4
		c-0.1,0.1-0.1,0.1-0.3,0.1c-0.2,0-0.4,0.1-0.7,0.1h-1v3.3h1.3l0,0c0.7,0,1.4-0.1,1.9-0.4c0.6-0.2,1-0.6,1.4-1
		c0.3-0.4,0.6-0.9,0.8-1.5c0.2-0.5,0.3-1,0.4-1.6c0.1-0.5,0.1-1,0.1-1.7l0.5-13.4h3v19.4h3.4V61.6h-9.7L186.2,78.2z"/>
	<polygon fill="#008080" points="211.2,61.6 207.4,61.6 202.3,70 202.3,61.6 198.9,61.6 198.9,84.3 202.3,84.3 202.3,76.1 
		202.6,75.5 207.8,84.3 211.5,84.3 204.7,72.3 	"/>
	<polygon fill="#008080" points="220.4,61.6 216.8,71.5 215.8,74.4 215.8,61.6 212.5,61.6 212.5,84.3 215.7,84.3 219.3,73.9 
		220.5,70.8 220.5,84.3 223.8,84.3 223.8,61.6 	"/>
</g>
<g>
	<path fill="#EF6A19" d="M124.8,92.8l-0.1,0.4c-0.1,0.2-0.1,0.4-0.2,0.6c-0.1-0.3-0.2-0.6-0.3-1l-1-4.1h-1.1l-1.1,4.1
		c0,0.1-0.1,0.2-0.1,0.3c0,0.1-0.1,0.3-0.1,0.5c0,0.1,0,0.2-0.1,0.2c-0.1-0.3-0.2-0.6-0.3-1l-1.2-4.1h-1.2l2.2,7.1h1.1l1.1-4.1
		c0.1-0.3,0.2-0.6,0.2-0.9c0.1,0.3,0.1,0.5,0.2,0.9l1.1,4.1h1.1l2.2-7.1H126L124.8,92.8z"/>
	<path fill="#EF6A19" d="M134,92.8l-0.1,0.3c-0.1,0.3-0.2,0.5-0.2,0.8c-0.1-0.3-0.2-0.6-0.3-1l-1-4.1h-1.1l-1.1,4.1
		c0,0.1-0.1,0.2-0.1,0.3c0,0.1-0.1,0.3-0.1,0.5c0,0.1,0,0.2-0.1,0.2c-0.1-0.3-0.2-0.6-0.3-1l-1.2-4.1h-1.2l2.1,6.9l0,0.1h1.1
		l1.1-4.1c0.1-0.3,0.2-0.6,0.2-0.9c0.1,0.3,0.1,0.6,0.2,0.9l1.1,4.1h1.1l2.2-7.1h-1.2L134,92.8z"/>
	<path fill="#EF6A19" d="M143.1,92.8l-0.1,0.4c-0.1,0.2-0.1,0.4-0.2,0.6c-0.1-0.3-0.2-0.6-0.3-1l-1-4.1h-1.1l-1.1,4.1
		c0,0.1-0.1,0.2-0.1,0.3c0,0.1-0.1,0.3-0.1,0.5c0,0.1,0,0.2-0.1,0.2c-0.1-0.3-0.2-0.6-0.3-1l-1.2-4.1h-1.2l2.1,6.9l0,0.1h1.1
		l1.1-4.1c0.1-0.3,0.2-0.6,0.2-0.9c0.1,0.3,0.1,0.6,0.2,0.9l1.1,4.1h1.1l2.2-7.1h-1.2L143.1,92.8z"/>
	<rect x="146" y="94.4" fill="#EF6A19" width="1.3" height="1.3"/>
	<path fill="#EF6A19" d="M153.4,92.4c0,0.4,0,0.9,0,1.4c-0.3-0.4-0.6-0.9-0.9-1.3l-2.7-3.8h-1.1v7.1h1.2v-3.6c0-0.5,0-1,0-1.5
		c0.2,0.4,0.5,0.8,0.9,1.3l2.7,3.8h1.1v-7.1h-1.2V92.4z"/>
	<path fill="#EF6A19" d="M161.5,89.6c-0.3-0.3-0.6-0.6-1-0.8c-0.4-0.2-0.9-0.3-1.4-0.3c-0.5,0-0.9,0.1-1.4,0.3
		c-0.4,0.2-0.8,0.4-1,0.8c-0.3,0.3-0.5,0.7-0.7,1.2c-0.2,0.5-0.2,0.9-0.2,1.5c0,0.5,0.1,1,0.2,1.5c0.1,0.4,0.4,0.8,0.7,1.2
		c0.3,0.3,0.6,0.6,1,0.8c0.4,0.2,0.9,0.3,1.4,0.3c0.5,0,0.9-0.1,1.4-0.3c0.4-0.2,0.8-0.4,1-0.8c0.3-0.4,0.5-0.7,0.7-1.2
		c0.2-0.5,0.2-0.9,0.2-1.5c0-0.5-0.1-1-0.2-1.5C162,90.3,161.8,89.9,161.5,89.6z M161.1,92.2c0,0.4,0,0.8-0.1,1.1
		c-0.1,0.3-0.3,0.6-0.4,0.8c-0.2,0.2-0.4,0.4-0.7,0.5c-0.3,0.1-0.5,0.2-0.8,0.2c-0.3,0-0.6,0-0.8-0.2c-0.3-0.1-0.5-0.3-0.7-0.5
		c-0.2-0.2-0.4-0.5-0.5-0.8c-0.1-0.3-0.2-0.7-0.2-1.1c0-0.5,0.1-0.8,0.2-1.1c0.1-0.3,0.3-0.6,0.4-0.8c0.2-0.2,0.4-0.3,0.7-0.5
		c0.2-0.1,0.5-0.2,0.8-0.2s0.6,0.1,0.8,0.2c0.3,0.1,0.5,0.3,0.7,0.5c0.2,0.2,0.4,0.5,0.4,0.8C161.1,91.4,161.1,91.8,161.1,92.2z"/>
	<path fill="#EF6A19" d="M167.3,92.6c0.2-0.1,0.4-0.2,0.6-0.4c0.2-0.2,0.3-0.4,0.4-0.6c0.1-0.3,0.1-0.5,0.1-0.8
		c0-0.5-0.1-0.9-0.4-1.3c-0.3-0.3-0.7-0.6-1.2-0.7c-0.2-0.1-0.4-0.1-0.6-0.1c-0.2,0-0.5,0-0.8,0h-1.9v7.1h1.2V93h0.7l2.1,2.8h1.2
		l-2-3C167,92.8,167.1,92.7,167.3,92.6z M167.3,90.8c0,0.3-0.1,0.5-0.2,0.6c-0.1,0.2-0.3,0.3-0.6,0.3c-0.1,0-0.3,0.1-0.4,0.1
		c-0.1,0-0.4,0-0.6,0h-0.6v-2.1h0.7c0.3,0,0.5,0,0.6,0c0.2,0,0.3,0,0.4,0.1c0.2,0.1,0.4,0.2,0.5,0.3
		C167.2,90.3,167.3,90.5,167.3,90.8z"/>
	<path fill="#EF6A19" d="M175,90.1c-0.2-0.3-0.5-0.5-0.8-0.7c-0.3-0.2-0.7-0.4-1.1-0.5c-0.2-0.1-0.5-0.1-0.8-0.2c-0.3,0-0.6,0-0.9,0
		h-1.7v7.1h1.7c0.3,0,0.6,0,0.9,0c0.3,0,0.5-0.1,0.8-0.2c0.3-0.1,0.7-0.3,1.1-0.5s0.6-0.5,0.8-0.8c0.2-0.3,0.4-0.6,0.5-1
		c0.1-0.3,0.2-0.7,0.2-1.1c0-0.4-0.1-0.8-0.2-1.1C175.3,90.7,175.2,90.4,175,90.1z M171,89.8h0.4c0.3,0,0.6,0,0.8,0
		c0.2,0,0.5,0.1,0.7,0.1c0.5,0.2,0.9,0.4,1.1,0.8c0.3,0.4,0.4,0.9,0.4,1.5c0,0.6-0.1,1.1-0.4,1.5c-0.3,0.4-0.7,0.7-1.1,0.8
		c-0.2,0.1-0.4,0.1-0.6,0.1c-0.2,0-0.5,0-0.8,0H171V89.8z"/>
	<rect x="176.8" y="88.7" fill="#EF6A19" width="1.2" height="7.1"/>
	<rect x="179.2" y="91.6" fill="#EF6A19" width="2.6" height="1.1"/>
	<path fill="#EF6A19" d="M187.8,90.8c0-0.5-0.1-0.8-0.3-1.2c-0.2-0.3-0.6-0.6-1-0.7c-0.2-0.1-0.4-0.1-0.7-0.2
		c-0.3-0.1-0.5-0.1-0.8-0.1h-2v7.1h1.2V93c0.7,0,1.3,0,1.8-0.1c0.4-0.1,0.8-0.2,1-0.4c0.3-0.2,0.5-0.4,0.7-0.7
		C187.8,91.5,187.8,91.2,187.8,90.8z M186.6,90.8c0,0.1,0,0.3-0.1,0.5c-0.1,0.1-0.2,0.3-0.3,0.4c-0.1,0.1-0.3,0.2-0.6,0.2
		c-0.2,0.1-0.5,0.1-0.9,0.1h-0.3c-0.1,0-0.1,0-0.1,0v-2.1h0.8c0.2,0,0.4,0,0.6,0c0.2,0,0.3,0,0.5,0.1c0.2,0.1,0.3,0.2,0.4,0.3
		C186.5,90.4,186.6,90.6,186.6,90.8z"/>
	<path fill="#EF6A19" d="M190.3,88.7l-2.9,7.1h1.3l0.8-2h2.5l0.8,2h1.3l-2.9-7.1H190.3z M191.6,92.6h-1.7l0.4-1
		c0.1-0.4,0.3-0.7,0.4-1.1c0.2,0.6,0.5,1.3,0.7,1.8L191.6,92.6z"/>
	<polygon fill="#EF6A19" points="195.9,88.7 194.8,88.7 194.8,95.8 199.2,95.8 199.2,94.6 195.9,94.6 	"/>
	<polygon fill="#EF6A19" points="205.5,88.7 204.2,88.7 201.4,91.7 201.4,88.7 200.2,88.7 200.2,95.8 201.4,95.8 201.4,92.7 
		204.3,95.7 204.4,95.8 205.7,95.8 202.3,92.2 	"/>
	<rect x="206.5" y="88.7" fill="#EF6A19" width="1.2" height="7.1"/>
	<rect x="209.2" y="94.4" fill="#EF6A19" width="1.3" height="1.3"/>
	<path fill="#EF6A19" d="M215.7,92.6c0.2-0.1,0.4-0.2,0.6-0.4c0.2-0.2,0.3-0.4,0.4-0.6c0.1-0.3,0.1-0.5,0.1-0.8
		c0-0.5-0.1-0.9-0.4-1.3c-0.3-0.3-0.7-0.6-1.2-0.7c-0.2-0.1-0.4-0.1-0.6-0.1c-0.2,0-0.5,0-0.8,0H212v7.1h1.2V93h0.7l2.1,2.8h1.2
		l-2-3C215.4,92.8,215.5,92.7,215.7,92.6z M215.6,90.8c0,0.3-0.1,0.5-0.2,0.6c-0.1,0.2-0.3,0.3-0.6,0.3c-0.1,0-0.3,0.1-0.4,0.1
		c-0.1,0-0.4,0-0.6,0h-0.6v-2.1h0.7c0.3,0,0.5,0,0.6,0c0.2,0,0.3,0,0.4,0.1c0.2,0.1,0.4,0.2,0.5,0.3
		C215.6,90.3,215.6,90.5,215.6,90.8z"/>
	<path fill="#EF6A19" d="M222.7,88.7l-0.2,0V93c0,0.1,0,0.2,0,0.4c0,0.1,0,0.3-0.1,0.3c0,0.2-0.1,0.3-0.2,0.4
		c-0.1,0.1-0.2,0.2-0.3,0.3c-0.1,0.1-0.3,0.2-0.4,0.2c-0.2,0-0.4,0.1-0.6,0.1c-0.4,0-0.7-0.1-1-0.3c-0.2-0.2-0.4-0.4-0.5-0.7
		c0-0.1-0.1-0.2-0.1-0.4c0-0.2,0-0.3,0-0.4v-4.3h-1.2V93c0,0.2,0,0.4,0,0.6c0,0.2,0.1,0.4,0.1,0.6c0.1,0.3,0.2,0.5,0.3,0.7
		c0.1,0.2,0.3,0.4,0.5,0.6c0.2,0.2,0.5,0.3,0.8,0.4c0.3,0.1,0.7,0.1,1,0.1c0.4,0,0.7,0,1.1-0.1c0.3-0.1,0.5-0.2,0.8-0.4
		c0.3-0.2,0.4-0.4,0.6-0.6c0.1-0.3,0.2-0.5,0.3-0.7c0.1-0.2,0.1-0.3,0.1-0.5c0-0.1,0-0.2,0-0.2c0-0.1,0-0.2,0-0.3v-4.3H222.7z"/>
</g>
</svg>
