<svg width="309" height="72" viewBox="0 0 309 72" fill="none" xmlns="http://www.w3.org/2000/svg">
<line x1="10" y1="55.5" x2="303" y2="55.5" stroke="#824292" stroke-width="3"/>
<line x1="11" y1="41" x2="11" y2="72" stroke="#824292" stroke-width="2"/>
<line x1="84" y1="41" x2="84" y2="72" stroke="#824292" stroke-width="2"/>
<line x1="157" y1="41" x2="157" y2="72" stroke="#824292" stroke-width="2"/>
<line x1="230" y1="41" x2="230" y2="72" stroke="#824292" stroke-width="2"/>
<line x1="303" y1="41" x2="303" y2="72" stroke="#824292" stroke-width="2"/>
<path d="M14.668 8.5625V37H8.24219V15.9844L3.06641 17.8789V12.8789L14.1016 8.5625H14.668Z" fill="#2D0049"/>
<path d="M88.3945 34.4609V37H79.8301V34.8516L83.6582 30.0469C83.9707 29.5846 84.2181 29.1712 84.4004 28.8066C84.5892 28.4355 84.7259 28.1003 84.8105 27.8008C84.8952 27.5013 84.9375 27.2311 84.9375 26.9902C84.9375 26.5801 84.8984 26.2383 84.8203 25.9648C84.7422 25.6849 84.6283 25.4733 84.4785 25.3301C84.3353 25.1868 84.1562 25.1152 83.9414 25.1152C83.707 25.1152 83.5052 25.2129 83.3359 25.4082C83.1667 25.6035 83.0365 25.8704 82.9453 26.209C82.8607 26.5475 82.8184 26.9284 82.8184 27.3516H79.5957C79.5957 26.4792 79.7812 25.6816 80.1523 24.959C80.5234 24.2363 81.041 23.6602 81.7051 23.2305C82.3691 22.7943 83.1406 22.5762 84.0195 22.5762C84.931 22.5762 85.6927 22.7389 86.3047 23.0645C86.9232 23.39 87.3854 23.862 87.6914 24.4805C88.0039 25.0924 88.1602 25.8314 88.1602 26.6973C88.1602 27.1921 88.0951 27.6673 87.9648 28.123C87.8346 28.5788 87.6458 29.0312 87.3984 29.4805C87.151 29.9232 86.8451 30.3789 86.4805 30.8477C86.1159 31.3164 85.696 31.8145 85.2207 32.3418L84.0391 34.4609H88.3945Z" fill="#824292"/>
<path d="M155.418 28.5137H156.844C157.117 28.5137 157.342 28.4421 157.518 28.2988C157.693 28.1491 157.824 27.9408 157.908 27.6738C157.993 27.4004 158.035 27.0781 158.035 26.707C158.035 26.4206 157.993 26.1569 157.908 25.916C157.83 25.6751 157.706 25.4831 157.537 25.3398C157.374 25.1901 157.166 25.1152 156.912 25.1152C156.756 25.1152 156.596 25.1706 156.434 25.2812C156.277 25.3854 156.147 25.5352 156.043 25.7305C155.939 25.9258 155.887 26.1634 155.887 26.4434H152.674C152.674 25.6361 152.866 24.946 153.25 24.373C153.634 23.7936 154.139 23.3509 154.764 23.0449C155.395 22.7324 156.076 22.5762 156.805 22.5762C157.677 22.5762 158.445 22.7324 159.109 23.0449C159.773 23.3509 160.294 23.8066 160.672 24.4121C161.049 25.0111 161.238 25.7533 161.238 26.6387C161.238 27.127 161.141 27.5859 160.945 28.0156C160.75 28.4453 160.477 28.8229 160.125 29.1484C159.773 29.474 159.367 29.7311 158.904 29.9199C158.442 30.1022 157.938 30.1934 157.391 30.1934H155.418V28.5137ZM155.418 30.9648V29.3242H157.391C157.99 29.3242 158.536 29.4056 159.031 29.5684C159.526 29.7246 159.949 29.959 160.301 30.2715C160.659 30.584 160.936 30.9714 161.131 31.4336C161.326 31.8893 161.424 32.4134 161.424 33.0059C161.424 33.6699 161.307 34.2624 161.072 34.7832C160.838 35.304 160.509 35.7435 160.086 36.1016C159.663 36.4596 159.171 36.7331 158.611 36.9219C158.051 37.1042 157.443 37.1953 156.785 37.1953C156.277 37.1953 155.77 37.1172 155.262 36.9609C154.76 36.7982 154.301 36.5508 153.885 36.2188C153.468 35.8802 153.133 35.4505 152.879 34.9297C152.625 34.4023 152.498 33.7741 152.498 33.0449H155.721C155.721 33.3444 155.776 33.6178 155.887 33.8652C155.997 34.1061 156.141 34.2982 156.316 34.4414C156.499 34.5846 156.691 34.6562 156.893 34.6562C157.173 34.6562 157.41 34.5814 157.605 34.4316C157.801 34.2754 157.951 34.0671 158.055 33.8066C158.159 33.5462 158.211 33.2565 158.211 32.9375C158.211 32.4557 158.159 32.0716 158.055 31.7852C157.951 31.4987 157.798 31.2904 157.596 31.1602C157.394 31.0299 157.143 30.9648 156.844 30.9648H155.418Z" fill="#824292"/>
<path d="M233.492 31.4434V33.9824H224.84L224.645 31.9707L229.273 22.7812H231.783L229.156 27.4004L227.662 31.4434H233.492ZM232.457 22.7812V37H229.244V22.7812H232.457Z" fill="#824292"/>
<path d="M301.457 30.6621L298.908 30.0469L299.66 22.7812H306.867V25.3398H302.268L302.043 28.1621C302.16 28.071 302.362 27.9635 302.648 27.8398C302.935 27.7096 303.254 27.6445 303.605 27.6445C304.211 27.6445 304.745 27.752 305.207 27.9668C305.669 28.1751 306.057 28.4844 306.369 28.8945C306.688 29.2982 306.926 29.7962 307.082 30.3887C307.245 30.9811 307.326 31.6582 307.326 32.4199C307.326 33.0319 307.238 33.6243 307.062 34.1973C306.893 34.7637 306.63 35.2747 306.271 35.7305C305.913 36.1797 305.464 36.5378 304.924 36.8047C304.383 37.0651 303.749 37.1953 303.02 37.1953C302.479 37.1953 301.949 37.0977 301.428 36.9023C300.913 36.707 300.445 36.4271 300.021 36.0625C299.605 35.6914 299.276 35.2454 299.035 34.7246C298.794 34.1973 298.684 33.6081 298.703 32.957H301.926C301.932 33.3021 301.981 33.6016 302.072 33.8555C302.17 34.1094 302.297 34.3079 302.453 34.4512C302.616 34.5879 302.798 34.6562 303 34.6562C303.228 34.6562 303.417 34.5911 303.566 34.4609C303.716 34.3307 303.83 34.1517 303.908 33.9238C303.986 33.696 304.038 33.4355 304.064 33.1426C304.097 32.8431 304.113 32.5273 304.113 32.1953C304.113 31.8438 304.087 31.528 304.035 31.248C303.99 30.9681 303.908 30.7305 303.791 30.5352C303.68 30.3333 303.534 30.1803 303.352 30.0762C303.169 29.972 302.945 29.9199 302.678 29.9199C302.32 29.9199 302.043 30.0013 301.848 30.1641C301.652 30.3268 301.522 30.4928 301.457 30.6621Z" fill="#824292"/>
</svg>
