<svg width="304" height="73" viewBox="0 0 304 73" fill="none" xmlns="http://www.w3.org/2000/svg">
<line x1="5" y1="56.5" x2="298" y2="56.5" stroke="#824292" stroke-width="3"/>
<line x1="6" y1="42" x2="6" y2="73" stroke="#824292" stroke-width="2"/>
<line x1="79" y1="42" x2="79" y2="73" stroke="#824292" stroke-width="2"/>
<line x1="152" y1="42" x2="152" y2="73" stroke="#824292" stroke-width="2"/>
<line x1="225" y1="42" x2="225" y2="73" stroke="#824292" stroke-width="2"/>
<line x1="298" y1="42" x2="298" y2="73" stroke="#824292" stroke-width="2"/>
<path d="M7.33398 23.7812V38H4.12109V27.4922L1.5332 28.4395V25.9395L7.05078 23.7812H7.33398Z" fill="#824292"/>
<path d="M87.7891 31.9219V37H70.6602V32.7031L78.3164 23.0938C78.9414 22.1693 79.4362 21.3424 79.8008 20.6133C80.1784 19.8711 80.4518 19.2005 80.6211 18.6016C80.7904 18.0026 80.875 17.4622 80.875 16.9805C80.875 16.1602 80.7969 15.4766 80.6406 14.9297C80.4844 14.3698 80.2565 13.9466 79.957 13.6602C79.6706 13.3737 79.3125 13.2305 78.8828 13.2305C78.4141 13.2305 78.0104 13.4258 77.6719 13.8164C77.3333 14.207 77.0729 14.7409 76.8906 15.418C76.7214 16.0951 76.6367 16.8568 76.6367 17.7031H70.1914C70.1914 15.9583 70.5625 14.3633 71.3047 12.918C72.0469 11.4727 73.082 10.3203 74.4102 9.46094C75.7383 8.58854 77.2812 8.15234 79.0391 8.15234C80.862 8.15234 82.3854 8.47786 83.6094 9.12891C84.8464 9.77995 85.7708 10.724 86.3828 11.9609C87.0078 13.1849 87.3203 14.6628 87.3203 16.3945C87.3203 17.3841 87.1901 18.3346 86.9297 19.2461C86.6693 20.1576 86.2917 21.0625 85.7969 21.9609C85.3021 22.8464 84.6901 23.7578 83.9609 24.6953C83.2318 25.6328 82.3919 26.6289 81.4414 27.6836L79.0781 31.9219H87.7891Z" fill="#2D0049"/>
<path d="M150.418 29.5137H151.844C152.117 29.5137 152.342 29.4421 152.518 29.2988C152.693 29.1491 152.824 28.9408 152.908 28.6738C152.993 28.4004 153.035 28.0781 153.035 27.707C153.035 27.4206 152.993 27.1569 152.908 26.916C152.83 26.6751 152.706 26.4831 152.537 26.3398C152.374 26.1901 152.166 26.1152 151.912 26.1152C151.756 26.1152 151.596 26.1706 151.434 26.2812C151.277 26.3854 151.147 26.5352 151.043 26.7305C150.939 26.9258 150.887 27.1634 150.887 27.4434H147.674C147.674 26.6361 147.866 25.946 148.25 25.373C148.634 24.7936 149.139 24.3509 149.764 24.0449C150.395 23.7324 151.076 23.5762 151.805 23.5762C152.677 23.5762 153.445 23.7324 154.109 24.0449C154.773 24.3509 155.294 24.8066 155.672 25.4121C156.049 26.0111 156.238 26.7533 156.238 27.6387C156.238 28.127 156.141 28.5859 155.945 29.0156C155.75 29.4453 155.477 29.8229 155.125 30.1484C154.773 30.474 154.367 30.7311 153.904 30.9199C153.442 31.1022 152.938 31.1934 152.391 31.1934H150.418V29.5137ZM150.418 31.9648V30.3242H152.391C152.99 30.3242 153.536 30.4056 154.031 30.5684C154.526 30.7246 154.949 30.959 155.301 31.2715C155.659 31.584 155.936 31.9714 156.131 32.4336C156.326 32.8893 156.424 33.4134 156.424 34.0059C156.424 34.6699 156.307 35.2624 156.072 35.7832C155.838 36.304 155.509 36.7435 155.086 37.1016C154.663 37.4596 154.171 37.7331 153.611 37.9219C153.051 38.1042 152.443 38.1953 151.785 38.1953C151.277 38.1953 150.77 38.1172 150.262 37.9609C149.76 37.7982 149.301 37.5508 148.885 37.2188C148.468 36.8802 148.133 36.4505 147.879 35.9297C147.625 35.4023 147.498 34.7741 147.498 34.0449H150.721C150.721 34.3444 150.776 34.6178 150.887 34.8652C150.997 35.1061 151.141 35.2982 151.316 35.4414C151.499 35.5846 151.691 35.6562 151.893 35.6562C152.173 35.6562 152.41 35.5814 152.605 35.4316C152.801 35.2754 152.951 35.0671 153.055 34.8066C153.159 34.5462 153.211 34.2565 153.211 33.9375C153.211 33.4557 153.159 33.0716 153.055 32.7852C152.951 32.4987 152.798 32.2904 152.596 32.1602C152.394 32.0299 152.143 31.9648 151.844 31.9648H150.418Z" fill="#824292"/>
<path d="M228.492 32.4434V34.9824H219.84L219.645 32.9707L224.273 23.7812H226.783L224.156 28.4004L222.662 32.4434H228.492ZM227.457 23.7812V38H224.244V23.7812H227.457Z" fill="#824292"/>
<path d="M296.457 31.6621L293.908 31.0469L294.66 23.7812H301.867V26.3398H297.268L297.043 29.1621C297.16 29.071 297.362 28.9635 297.648 28.8398C297.935 28.7096 298.254 28.6445 298.605 28.6445C299.211 28.6445 299.745 28.752 300.207 28.9668C300.669 29.1751 301.057 29.4844 301.369 29.8945C301.688 30.2982 301.926 30.7962 302.082 31.3887C302.245 31.9811 302.326 32.6582 302.326 33.4199C302.326 34.0319 302.238 34.6243 302.062 35.1973C301.893 35.7637 301.63 36.2747 301.271 36.7305C300.913 37.1797 300.464 37.5378 299.924 37.8047C299.383 38.0651 298.749 38.1953 298.02 38.1953C297.479 38.1953 296.949 38.0977 296.428 37.9023C295.913 37.707 295.445 37.4271 295.021 37.0625C294.605 36.6914 294.276 36.2454 294.035 35.7246C293.794 35.1973 293.684 34.6081 293.703 33.957H296.926C296.932 34.3021 296.981 34.6016 297.072 34.8555C297.17 35.1094 297.297 35.3079 297.453 35.4512C297.616 35.5879 297.798 35.6562 298 35.6562C298.228 35.6562 298.417 35.5911 298.566 35.4609C298.716 35.3307 298.83 35.1517 298.908 34.9238C298.986 34.696 299.038 34.4355 299.064 34.1426C299.097 33.8431 299.113 33.5273 299.113 33.1953C299.113 32.8438 299.087 32.528 299.035 32.248C298.99 31.9681 298.908 31.7305 298.791 31.5352C298.68 31.3333 298.534 31.1803 298.352 31.0762C298.169 30.972 297.945 30.9199 297.678 30.9199C297.32 30.9199 297.043 31.0013 296.848 31.1641C296.652 31.3268 296.522 31.4928 296.457 31.6621Z" fill="#824292"/>
</svg>
