<svg width="304" height="72" viewBox="0 0 304 72" fill="none" xmlns="http://www.w3.org/2000/svg">
<line x1="5" y1="55.5" x2="298" y2="55.5" stroke="#824292" stroke-width="3"/>
<line x1="6" y1="41" x2="6" y2="72" stroke="#824292" stroke-width="2"/>
<line x1="79" y1="41" x2="79" y2="72" stroke="#824292" stroke-width="2"/>
<line x1="152" y1="41" x2="152" y2="72" stroke="#824292" stroke-width="2"/>
<line x1="225" y1="41" x2="225" y2="72" stroke="#824292" stroke-width="2"/>
<line x1="298" y1="41" x2="298" y2="72" stroke="#824292" stroke-width="2"/>
<path d="M7.33398 22.7812V37H4.12109V26.4922L1.5332 27.4395V24.9395L7.05078 22.7812H7.33398Z" fill="#824292"/>
<path d="M83.3945 34.4609V37H74.8301V34.8516L78.6582 30.0469C78.9707 29.5846 79.2181 29.1712 79.4004 28.8066C79.5892 28.4355 79.7259 28.1003 79.8105 27.8008C79.8952 27.5013 79.9375 27.2311 79.9375 26.9902C79.9375 26.5801 79.8984 26.2383 79.8203 25.9648C79.7422 25.6849 79.6283 25.4733 79.4785 25.3301C79.3353 25.1868 79.1562 25.1152 78.9414 25.1152C78.707 25.1152 78.5052 25.2129 78.3359 25.4082C78.1667 25.6035 78.0365 25.8704 77.9453 26.209C77.8607 26.5475 77.8184 26.9284 77.8184 27.3516H74.5957C74.5957 26.4792 74.7812 25.6816 75.1523 24.959C75.5234 24.2363 76.041 23.6602 76.7051 23.2305C77.3691 22.7943 78.1406 22.5762 79.0195 22.5762C79.931 22.5762 80.6927 22.7389 81.3047 23.0645C81.9232 23.39 82.3854 23.862 82.6914 24.4805C83.0039 25.0924 83.1602 25.8314 83.1602 26.6973C83.1602 27.1921 83.0951 27.6673 82.9648 28.123C82.8346 28.5788 82.6458 29.0312 82.3984 29.4805C82.151 29.9232 81.8451 30.3789 81.4805 30.8477C81.1159 31.3164 80.696 31.8145 80.2207 32.3418L79.0391 34.4609H83.3945Z" fill="#824292"/>
<path d="M148.836 20.0273H151.688C152.234 20.0273 152.684 19.8841 153.035 19.5977C153.387 19.2982 153.647 18.8815 153.816 18.3477C153.986 17.8008 154.07 17.1562 154.07 16.4141C154.07 15.8411 153.986 15.3138 153.816 14.832C153.66 14.3503 153.413 13.9661 153.074 13.6797C152.749 13.3802 152.332 13.2305 151.824 13.2305C151.512 13.2305 151.193 13.3411 150.867 13.5625C150.555 13.7708 150.294 14.0703 150.086 14.4609C149.878 14.8516 149.773 15.3268 149.773 15.8867H143.348C143.348 14.2721 143.732 12.8919 144.5 11.7461C145.268 10.5872 146.277 9.70182 147.527 9.08984C148.79 8.46484 150.151 8.15234 151.609 8.15234C153.354 8.15234 154.891 8.46484 156.219 9.08984C157.547 9.70182 158.589 10.6133 159.344 11.8242C160.099 13.0221 160.477 14.5065 160.477 16.2773C160.477 17.2539 160.281 18.1719 159.891 19.0312C159.5 19.8906 158.953 20.6458 158.25 21.2969C157.547 21.9479 156.733 22.4622 155.809 22.8398C154.884 23.2044 153.875 23.3867 152.781 23.3867H148.836V20.0273ZM148.836 24.9297V21.6484H152.781C153.979 21.6484 155.073 21.8112 156.062 22.1367C157.052 22.4492 157.898 22.918 158.602 23.543C159.318 24.168 159.871 24.9427 160.262 25.8672C160.652 26.7786 160.848 27.8268 160.848 29.0117C160.848 30.3398 160.613 31.5247 160.145 32.5664C159.676 33.6081 159.018 34.487 158.172 35.2031C157.326 35.9193 156.342 36.4661 155.223 36.8438C154.103 37.2083 152.885 37.3906 151.57 37.3906C150.555 37.3906 149.539 37.2344 148.523 36.9219C147.521 36.5964 146.603 36.1016 145.77 35.4375C144.936 34.7604 144.266 33.901 143.758 32.8594C143.25 31.8047 142.996 30.5482 142.996 29.0898H149.441C149.441 29.6888 149.552 30.2357 149.773 30.7305C149.995 31.2122 150.281 31.5964 150.633 31.8828C150.997 32.1693 151.382 32.3125 151.785 32.3125C152.345 32.3125 152.82 32.1628 153.211 31.8633C153.602 31.5508 153.901 31.1341 154.109 30.6133C154.318 30.0924 154.422 29.513 154.422 28.875C154.422 27.9115 154.318 27.1432 154.109 26.5703C153.901 25.9974 153.595 25.5807 153.191 25.3203C152.788 25.0599 152.286 24.9297 151.688 24.9297H148.836Z" fill="#2D0049"/>
<path d="M228.492 31.4434V33.9824H219.84L219.645 31.9707L224.273 22.7812H226.783L224.156 27.4004L222.662 31.4434H228.492ZM227.457 22.7812V37H224.244V22.7812H227.457Z" fill="#824292"/>
<path d="M296.457 30.6621L293.908 30.0469L294.66 22.7812H301.867V25.3398H297.268L297.043 28.1621C297.16 28.071 297.362 27.9635 297.648 27.8398C297.935 27.7096 298.254 27.6445 298.605 27.6445C299.211 27.6445 299.745 27.752 300.207 27.9668C300.669 28.1751 301.057 28.4844 301.369 28.8945C301.688 29.2982 301.926 29.7962 302.082 30.3887C302.245 30.9811 302.326 31.6582 302.326 32.4199C302.326 33.0319 302.238 33.6243 302.062 34.1973C301.893 34.7637 301.63 35.2747 301.271 35.7305C300.913 36.1797 300.464 36.5378 299.924 36.8047C299.383 37.0651 298.749 37.1953 298.02 37.1953C297.479 37.1953 296.949 37.0977 296.428 36.9023C295.913 36.707 295.445 36.4271 295.021 36.0625C294.605 35.6914 294.276 35.2454 294.035 34.7246C293.794 34.1973 293.684 33.6081 293.703 32.957H296.926C296.932 33.3021 296.981 33.6016 297.072 33.8555C297.17 34.1094 297.297 34.3079 297.453 34.4512C297.616 34.5879 297.798 34.6562 298 34.6562C298.228 34.6562 298.417 34.5911 298.566 34.4609C298.716 34.3307 298.83 34.1517 298.908 33.9238C298.986 33.696 299.038 33.4355 299.064 33.1426C299.097 32.8431 299.113 32.5273 299.113 32.1953C299.113 31.8438 299.087 31.528 299.035 31.248C298.99 30.9681 298.908 30.7305 298.791 30.5352C298.68 30.3333 298.534 30.1803 298.352 30.0762C298.169 29.972 297.945 29.9199 297.678 29.9199C297.32 29.9199 297.043 30.0013 296.848 30.1641C296.652 30.3268 296.522 30.4928 296.457 30.6621Z" fill="#824292"/>
</svg>
