<svg width="304" height="72" viewBox="0 0 304 72" fill="none" xmlns="http://www.w3.org/2000/svg">
<line x1="5" y1="55.5" x2="298" y2="55.5" stroke="#824292" stroke-width="3"/>
<line x1="6" y1="41" x2="6" y2="72" stroke="#824292" stroke-width="2"/>
<line x1="79" y1="41" x2="79" y2="72" stroke="#824292" stroke-width="2"/>
<line x1="152" y1="41" x2="152" y2="72" stroke="#824292" stroke-width="2"/>
<line x1="225" y1="41" x2="225" y2="72" stroke="#824292" stroke-width="2"/>
<line x1="298" y1="41" x2="298" y2="72" stroke="#824292" stroke-width="2"/>
<path d="M7.33398 22.7812V37H4.12109V26.4922L1.5332 27.4395V24.9395L7.05078 22.7812H7.33398Z" fill="#824292"/>
<path d="M83.3945 34.4609V37H74.8301V34.8516L78.6582 30.0469C78.9707 29.5846 79.2181 29.1712 79.4004 28.8066C79.5892 28.4355 79.7259 28.1003 79.8105 27.8008C79.8952 27.5013 79.9375 27.2311 79.9375 26.9902C79.9375 26.5801 79.8984 26.2383 79.8203 25.9648C79.7422 25.6849 79.6283 25.4733 79.4785 25.3301C79.3353 25.1868 79.1562 25.1152 78.9414 25.1152C78.707 25.1152 78.5052 25.2129 78.3359 25.4082C78.1667 25.6035 78.0365 25.8704 77.9453 26.209C77.8607 26.5475 77.8184 26.9284 77.8184 27.3516H74.5957C74.5957 26.4792 74.7812 25.6816 75.1523 24.959C75.5234 24.2363 76.041 23.6602 76.7051 23.2305C77.3691 22.7943 78.1406 22.5762 79.0195 22.5762C79.931 22.5762 80.6927 22.7389 81.3047 23.0645C81.9232 23.39 82.3854 23.862 82.6914 24.4805C83.0039 25.0924 83.1602 25.8314 83.1602 26.6973C83.1602 27.1921 83.0951 27.6673 82.9648 28.123C82.8346 28.5788 82.6458 29.0312 82.3984 29.4805C82.151 29.9232 81.8451 30.3789 81.4805 30.8477C81.1159 31.3164 80.696 31.8145 80.2207 32.3418L79.0391 34.4609H83.3945Z" fill="#824292"/>
<path d="M149.418 28.5137H150.844C151.117 28.5137 151.342 28.4421 151.518 28.2988C151.693 28.1491 151.824 27.9408 151.908 27.6738C151.993 27.4004 152.035 27.0781 152.035 26.707C152.035 26.4206 151.993 26.1569 151.908 25.916C151.83 25.6751 151.706 25.4831 151.537 25.3398C151.374 25.1901 151.166 25.1152 150.912 25.1152C150.756 25.1152 150.596 25.1706 150.434 25.2812C150.277 25.3854 150.147 25.5352 150.043 25.7305C149.939 25.9258 149.887 26.1634 149.887 26.4434H146.674C146.674 25.6361 146.866 24.946 147.25 24.373C147.634 23.7936 148.139 23.3509 148.764 23.0449C149.395 22.7324 150.076 22.5762 150.805 22.5762C151.677 22.5762 152.445 22.7324 153.109 23.0449C153.773 23.3509 154.294 23.8066 154.672 24.4121C155.049 25.0111 155.238 25.7533 155.238 26.6387C155.238 27.127 155.141 27.5859 154.945 28.0156C154.75 28.4453 154.477 28.8229 154.125 29.1484C153.773 29.474 153.367 29.7311 152.904 29.9199C152.442 30.1022 151.938 30.1934 151.391 30.1934H149.418V28.5137ZM149.418 30.9648V29.3242H151.391C151.99 29.3242 152.536 29.4056 153.031 29.5684C153.526 29.7246 153.949 29.959 154.301 30.2715C154.659 30.584 154.936 30.9714 155.131 31.4336C155.326 31.8893 155.424 32.4134 155.424 33.0059C155.424 33.6699 155.307 34.2624 155.072 34.7832C154.838 35.304 154.509 35.7435 154.086 36.1016C153.663 36.4596 153.171 36.7331 152.611 36.9219C152.051 37.1042 151.443 37.1953 150.785 37.1953C150.277 37.1953 149.77 37.1172 149.262 36.9609C148.76 36.7982 148.301 36.5508 147.885 36.2188C147.468 35.8802 147.133 35.4505 146.879 34.9297C146.625 34.4023 146.498 33.7741 146.498 33.0449H149.721C149.721 33.3444 149.776 33.6178 149.887 33.8652C149.997 34.1061 150.141 34.2982 150.316 34.4414C150.499 34.5846 150.691 34.6562 150.893 34.6562C151.173 34.6562 151.41 34.5814 151.605 34.4316C151.801 34.2754 151.951 34.0671 152.055 33.8066C152.159 33.5462 152.211 33.2565 152.211 32.9375C152.211 32.4557 152.159 32.0716 152.055 31.7852C151.951 31.4987 151.798 31.2904 151.596 31.1602C151.394 31.0299 151.143 30.9648 150.844 30.9648H149.418Z" fill="#824292"/>
<path d="M231.984 25.8867V30.9648H214.68L214.289 26.9414L223.547 8.5625H228.566L223.312 17.8008L220.324 25.8867H231.984ZM229.914 8.5625V37H223.488V8.5625H229.914Z" fill="#2D0049"/>
<path d="M296.457 30.6621L293.908 30.0469L294.66 22.7812H301.867V25.3398H297.268L297.043 28.1621C297.16 28.071 297.362 27.9635 297.648 27.8398C297.935 27.7096 298.254 27.6445 298.605 27.6445C299.211 27.6445 299.745 27.752 300.207 27.9668C300.669 28.1751 301.057 28.4844 301.369 28.8945C301.688 29.2982 301.926 29.7962 302.082 30.3887C302.245 30.9811 302.326 31.6582 302.326 32.4199C302.326 33.0319 302.238 33.6243 302.062 34.1973C301.893 34.7637 301.63 35.2747 301.271 35.7305C300.913 36.1797 300.464 36.5378 299.924 36.8047C299.383 37.0651 298.749 37.1953 298.02 37.1953C297.479 37.1953 296.949 37.0977 296.428 36.9023C295.913 36.707 295.445 36.4271 295.021 36.0625C294.605 35.6914 294.276 35.2454 294.035 34.7246C293.794 34.1973 293.684 33.6081 293.703 32.957H296.926C296.932 33.3021 296.981 33.6016 297.072 33.8555C297.17 34.1094 297.297 34.3079 297.453 34.4512C297.616 34.5879 297.798 34.6562 298 34.6562C298.228 34.6562 298.417 34.5911 298.566 34.4609C298.716 34.3307 298.83 34.1517 298.908 33.9238C298.986 33.696 299.038 33.4355 299.064 33.1426C299.097 32.8431 299.113 32.5273 299.113 32.1953C299.113 31.8438 299.087 31.528 299.035 31.248C298.99 30.9681 298.908 30.7305 298.791 30.5352C298.68 30.3333 298.534 30.1803 298.352 30.0762C298.169 29.972 297.945 29.9199 297.678 29.9199C297.32 29.9199 297.043 30.0013 296.848 30.1641C296.652 30.3268 296.522 30.4928 296.457 30.6621Z" fill="#824292"/>
</svg>
