<svg width="308" height="72" viewBox="0 0 308 72" fill="none" xmlns="http://www.w3.org/2000/svg">
<line x1="5" y1="55.5" x2="298" y2="55.5" stroke="#824292" stroke-width="3"/>
<line x1="6" y1="41" x2="6" y2="72" stroke="#824292" stroke-width="2"/>
<line x1="79" y1="41" x2="79" y2="72" stroke="#824292" stroke-width="2"/>
<line x1="152" y1="41" x2="152" y2="72" stroke="#824292" stroke-width="2"/>
<line x1="225" y1="41" x2="225" y2="72" stroke="#824292" stroke-width="2"/>
<line x1="298" y1="41" x2="298" y2="72" stroke="#824292" stroke-width="2"/>
<path d="M7.33398 22.7812V37H4.12109V26.4922L1.5332 27.4395V24.9395L7.05078 22.7812H7.33398Z" fill="#824292"/>
<path d="M83.3945 34.4609V37H74.8301V34.8516L78.6582 30.0469C78.9707 29.5846 79.2181 29.1712 79.4004 28.8066C79.5892 28.4355 79.7259 28.1003 79.8105 27.8008C79.8952 27.5013 79.9375 27.2311 79.9375 26.9902C79.9375 26.5801 79.8984 26.2383 79.8203 25.9648C79.7422 25.6849 79.6283 25.4733 79.4785 25.3301C79.3353 25.1868 79.1562 25.1152 78.9414 25.1152C78.707 25.1152 78.5052 25.2129 78.3359 25.4082C78.1667 25.6035 78.0365 25.8704 77.9453 26.209C77.8607 26.5475 77.8184 26.9284 77.8184 27.3516H74.5957C74.5957 26.4792 74.7812 25.6816 75.1523 24.959C75.5234 24.2363 76.041 23.6602 76.7051 23.2305C77.3691 22.7943 78.1406 22.5762 79.0195 22.5762C79.931 22.5762 80.6927 22.7389 81.3047 23.0645C81.9232 23.39 82.3854 23.862 82.6914 24.4805C83.0039 25.0924 83.1602 25.8314 83.1602 26.6973C83.1602 27.1921 83.0951 27.6673 82.9648 28.123C82.8346 28.5788 82.6458 29.0312 82.3984 29.4805C82.151 29.9232 81.8451 30.3789 81.4805 30.8477C81.1159 31.3164 80.696 31.8145 80.2207 32.3418L79.0391 34.4609H83.3945Z" fill="#824292"/>
<path d="M149.418 28.5137H150.844C151.117 28.5137 151.342 28.4421 151.518 28.2988C151.693 28.1491 151.824 27.9408 151.908 27.6738C151.993 27.4004 152.035 27.0781 152.035 26.707C152.035 26.4206 151.993 26.1569 151.908 25.916C151.83 25.6751 151.706 25.4831 151.537 25.3398C151.374 25.1901 151.166 25.1152 150.912 25.1152C150.756 25.1152 150.596 25.1706 150.434 25.2812C150.277 25.3854 150.147 25.5352 150.043 25.7305C149.939 25.9258 149.887 26.1634 149.887 26.4434H146.674C146.674 25.6361 146.866 24.946 147.25 24.373C147.634 23.7936 148.139 23.3509 148.764 23.0449C149.395 22.7324 150.076 22.5762 150.805 22.5762C151.677 22.5762 152.445 22.7324 153.109 23.0449C153.773 23.3509 154.294 23.8066 154.672 24.4121C155.049 25.0111 155.238 25.7533 155.238 26.6387C155.238 27.127 155.141 27.5859 154.945 28.0156C154.75 28.4453 154.477 28.8229 154.125 29.1484C153.773 29.474 153.367 29.7311 152.904 29.9199C152.442 30.1022 151.938 30.1934 151.391 30.1934H149.418V28.5137ZM149.418 30.9648V29.3242H151.391C151.99 29.3242 152.536 29.4056 153.031 29.5684C153.526 29.7246 153.949 29.959 154.301 30.2715C154.659 30.584 154.936 30.9714 155.131 31.4336C155.326 31.8893 155.424 32.4134 155.424 33.0059C155.424 33.6699 155.307 34.2624 155.072 34.7832C154.838 35.304 154.509 35.7435 154.086 36.1016C153.663 36.4596 153.171 36.7331 152.611 36.9219C152.051 37.1042 151.443 37.1953 150.785 37.1953C150.277 37.1953 149.77 37.1172 149.262 36.9609C148.76 36.7982 148.301 36.5508 147.885 36.2188C147.468 35.8802 147.133 35.4505 146.879 34.9297C146.625 34.4023 146.498 33.7741 146.498 33.0449H149.721C149.721 33.3444 149.776 33.6178 149.887 33.8652C149.997 34.1061 150.141 34.2982 150.316 34.4414C150.499 34.5846 150.691 34.6562 150.893 34.6562C151.173 34.6562 151.41 34.5814 151.605 34.4316C151.801 34.2754 151.951 34.0671 152.055 33.8066C152.159 33.5462 152.211 33.2565 152.211 32.9375C152.211 32.4557 152.159 32.0716 152.055 31.7852C151.951 31.4987 151.798 31.2904 151.596 31.1602C151.394 31.0299 151.143 30.9648 150.844 30.9648H149.418Z" fill="#824292"/>
<path d="M227.492 31.4434V33.9824H218.84L218.645 31.9707L223.273 22.7812H225.783L223.156 27.4004L221.662 31.4434H227.492ZM226.457 22.7812V37H223.244V22.7812H226.457Z" fill="#824292"/>
<path d="M293.914 24.3242L288.816 23.0938L290.32 8.5625H304.734V13.6797H295.535L295.086 19.3242C295.32 19.1419 295.724 18.9271 296.297 18.6797C296.87 18.4193 297.508 18.2891 298.211 18.2891C299.422 18.2891 300.49 18.5039 301.414 18.9336C302.339 19.3503 303.113 19.9688 303.738 20.7891C304.376 21.5964 304.852 22.5924 305.164 23.7773C305.49 24.9622 305.652 26.3164 305.652 27.8398C305.652 29.0638 305.477 30.2487 305.125 31.3945C304.786 32.5273 304.259 33.5495 303.543 34.4609C302.827 35.3594 301.928 36.0755 300.848 36.6094C299.767 37.1302 298.497 37.3906 297.039 37.3906C295.958 37.3906 294.897 37.1953 293.855 36.8047C292.827 36.4141 291.889 35.8542 291.043 35.125C290.21 34.3828 289.552 33.4909 289.07 32.4492C288.589 31.3945 288.367 30.2161 288.406 28.9141H294.852C294.865 29.6042 294.962 30.2031 295.145 30.7109C295.34 31.2188 295.594 31.6159 295.906 31.9023C296.232 32.1758 296.596 32.3125 297 32.3125C297.456 32.3125 297.833 32.1823 298.133 31.9219C298.432 31.6615 298.66 31.3034 298.816 30.8477C298.973 30.3919 299.077 29.8711 299.129 29.2852C299.194 28.6862 299.227 28.0547 299.227 27.3906C299.227 26.6875 299.174 26.056 299.07 25.4961C298.979 24.9362 298.816 24.4609 298.582 24.0703C298.361 23.6667 298.068 23.3607 297.703 23.1523C297.339 22.944 296.889 22.8398 296.355 22.8398C295.639 22.8398 295.086 23.0026 294.695 23.3281C294.305 23.6536 294.044 23.9857 293.914 24.3242Z" fill="#2D0049"/>
</svg>
