<svg width="326" height="107" viewBox="0 0 326 107" fill="none" xmlns="http://www.w3.org/2000/svg">
<g clip-path="url(#clip0_118_1302)">
<path d="M118.045 6.02744H137.036V32.9566H133.559V9.41387H121.523V32.9589H118.045V6.02744Z" fill="#824292"/>
<path d="M141.26 19.4932C141.26 15.5945 142.568 12.2996 145.186 9.60595C147.803 6.88719 151.005 5.52896 154.793 5.52896C158.582 5.52896 161.783 6.88948 164.401 9.60595C167.043 12.2996 168.363 15.5945 168.363 19.4932C168.363 23.3666 167.041 26.6616 164.401 29.3804C161.783 32.0991 158.582 33.4574 154.793 33.4574C151.005 33.4574 147.803 32.0991 145.186 29.3804C142.568 26.6365 141.26 23.3392 141.26 19.4932ZM164.885 19.4932C164.885 16.5183 163.914 14.0305 161.97 12.0297C160.075 10.0038 157.684 8.99086 154.793 8.99086C151.927 8.99086 149.523 10.0038 147.579 12.0297C145.659 14.0557 144.701 16.5435 144.701 19.4932C144.701 22.4177 145.661 24.9055 147.579 26.9566C149.523 28.9574 151.927 29.9566 154.793 29.9566C157.684 29.9566 160.077 28.9574 161.97 26.9566C163.914 24.9055 164.885 22.4177 164.885 19.4932Z" fill="#824292"/>
<path d="M202.455 6.02744H206.382V32.9566H202.942V11.9154L194.381 26.5724H193.932L185.371 11.9543V32.9589H181.894V6.02744H185.82L194.157 20.2615L202.455 6.02744Z" fill="#824292"/>
<path d="M231.725 32.9589H228.247V12.8758L214.789 32.9566H211.985V6.02744H215.462V26.1471L228.921 6.02744H231.725V32.9589Z" fill="#824292"/>
<path d="M237.333 6.02744H246.827C249.22 6.02744 251.224 6.86204 252.846 8.52896C254.466 10.1959 255.277 12.247 255.277 14.6845C255.277 17.122 254.466 19.173 252.846 20.84C251.226 22.5069 249.22 23.3415 246.827 23.3415H240.808V32.9589H237.33V6.02744H237.333ZM240.808 19.9939H246.827C248.298 19.9939 249.493 19.4932 250.415 18.4939C251.362 17.4421 251.835 16.173 251.835 14.6845C251.835 13.1456 251.362 11.8765 250.415 10.875C249.469 9.87577 248.271 9.375 246.827 9.375H240.808V19.9939Z" fill="#824292"/>
<path d="M266.94 21.4162L273.219 6.02743H276.734L268.322 26.5701C266.453 31.0839 263.449 33.2127 259.312 32.9566V29.6479C260.732 29.8011 261.898 29.5907 262.807 29.0122C263.716 28.436 264.471 27.4162 265.069 25.9528L265.331 25.3377L256.472 6.02515H259.985L266.94 21.4162Z" fill="#824292"/>
<path d="M130.346 71.0626C126.357 71.0626 123.08 69.7158 120.514 67.0222C117.948 64.3561 116.663 61.0474 116.663 57.0961C116.663 53.1472 117.948 49.8385 120.514 47.17C123.08 44.4764 126.357 43.1296 130.346 43.1296C132.712 43.1296 134.907 43.7196 136.925 44.8995C138.942 46.0793 140.513 47.6685 141.635 49.6693L138.607 51.478C137.86 49.9917 136.743 48.805 135.261 47.92C133.779 47.0351 132.139 46.5938 130.346 46.5938C127.304 46.5938 124.838 47.5954 122.945 49.5938C121.049 51.5694 120.103 54.0687 120.103 57.0961C120.103 60.0961 121.049 62.5839 122.945 64.5596C124.838 66.5603 127.306 67.5596 130.346 67.5596C132.141 67.5596 133.779 67.1183 135.261 66.2333C136.743 65.3484 137.858 64.1754 138.607 62.7143L141.635 64.4841C140.538 66.4849 138.98 68.0878 136.963 69.2928C134.967 70.4727 132.761 71.0626 130.346 71.0626Z" fill="#824292"/>
<path d="M155.018 43.6327H174.008V70.5619H170.531V47.0191H158.495V70.5641H155.018V43.6327Z" fill="#824292"/>
<path d="M200.549 70.5619H196.847L194.717 64.523H182.94L180.81 70.5619H177.108L186.864 43.6327H190.79L200.549 70.5619ZM188.811 47.904L184.138 61.1754H193.521L188.811 47.904Z" fill="#824292"/>
<path d="M201.482 70.5619V67.3309C203.251 67.587 204.553 67.0748 205.388 65.792C206.224 64.5093 206.642 62.2135 206.642 58.9048V43.6327H223.912V70.5619H220.435V47.0191H210.117V58.9071C210.117 61.292 209.899 63.3065 209.463 64.9483C209.028 66.5901 208.403 67.8203 207.595 68.6411C206.784 69.462 205.888 70.02 204.904 70.3149C203.917 70.6076 202.778 70.6899 201.482 70.5619Z" fill="#824292"/>
<path d="M236.622 56.712L248.547 70.5619H244.285L232.996 57.6358V70.5619H229.518V43.6327H232.996V55.7905L243.912 43.6327H248.173L236.622 56.712Z" fill="#824292"/>
<path d="M273.068 70.5619H269.366L267.235 64.523H255.459L253.328 70.5619H249.626L259.383 43.6327H263.309L273.068 70.5619ZM261.331 47.904L256.659 61.1754H266.042L261.331 47.904Z" fill="#824292"/>
<path d="M296.731 43.6327H300.657V70.5619H297.217V49.5184L288.656 64.1754H288.208L279.647 49.5572V70.5619H276.169V43.6327H280.095L288.432 57.8667L296.731 43.6327Z" fill="#824292"/>
<path d="M326 70.5619H322.523V50.481L309.067 70.5619H306.263V43.6327H309.74V63.7524L323.198 43.6327H326.002V70.5619H326Z" fill="#824292"/>
<path d="M117.939 91.4659C117.939 92.5497 118.785 93.302 120.478 93.725C122.049 94.0703 123.109 94.3927 123.658 94.69C124.633 95.2387 125.122 96.039 125.122 97.0909C125.122 98.049 124.74 98.8493 123.978 99.4918C123.231 100.121 122.263 100.434 121.072 100.434C118.814 100.434 117.381 99.5787 116.77 97.8683L117.434 97.4682C117.923 98.9133 119.134 99.6336 121.072 99.6336C122.003 99.6336 122.771 99.3981 123.382 98.927C123.991 98.456 124.298 97.8432 124.298 97.0909C124.298 95.9453 123.451 95.1839 121.758 94.8066C121.667 94.7906 121.46 94.7448 121.14 94.6648C120.82 94.5871 120.603 94.5322 120.489 94.5002C120.376 94.4682 120.169 94.411 119.872 94.3241C119.574 94.2372 119.361 94.1663 119.232 94.1115C119.103 94.0566 118.919 93.9743 118.683 93.8645C118.448 93.7547 118.272 93.6496 118.156 93.5467C118.043 93.4438 117.905 93.3203 117.745 93.1694C117.585 93.0208 117.468 92.863 117.39 92.6983C117.314 92.5337 117.25 92.3462 117.194 92.1336C117.141 91.9209 117.114 91.6968 117.114 91.4636C117.114 90.5215 117.465 89.7372 118.168 89.1084C118.885 88.4659 119.823 88.1435 120.98 88.1435C121.88 88.1435 122.662 88.3515 123.325 88.7677C123.989 89.1839 124.464 89.7441 124.753 90.4506L124.089 90.8508C123.845 90.238 123.449 89.7669 122.9 89.4377C122.351 89.1084 121.711 88.9438 120.978 88.9438C120.094 88.9438 119.365 89.1747 118.794 89.6389C118.225 90.1054 117.939 90.7136 117.939 91.4659Z" fill="#60326B"/>
<path d="M132.879 100.436C131.186 100.436 129.768 99.8485 128.624 98.6709C127.48 97.4933 126.909 96.0345 126.909 94.2921C126.909 92.5497 127.48 91.0909 128.624 89.9133C129.768 88.7357 131.186 88.148 132.879 88.148C133.992 88.148 134.998 88.4156 135.898 88.9483C136.798 89.4811 137.463 90.1968 137.889 91.0909L137.225 91.491C136.858 90.7227 136.283 90.1054 135.498 89.6435C134.712 89.1816 133.841 88.9483 132.879 88.9483C131.415 88.9483 130.186 89.4651 129.195 90.5009C128.204 91.5208 127.708 92.7852 127.708 94.2921C127.708 95.783 128.204 97.0543 129.195 98.1061C130.186 99.1259 131.415 99.6359 132.879 99.6359C133.839 99.6359 134.705 99.4095 135.476 98.9522C136.245 98.4971 136.838 97.8775 137.249 97.0932L137.914 97.4933C137.471 98.3874 136.796 99.1031 135.889 99.6359C134.978 100.169 133.976 100.436 132.879 100.436Z" fill="#60326B"/>
<path d="M150.996 91.5619V88.4064H151.796V100.178H150.996V97.0223C150.538 98.0581 149.841 98.8859 148.903 99.5055C147.965 100.125 146.923 100.436 145.781 100.436C144.135 100.436 142.731 99.8485 141.571 98.6709C140.411 97.4796 139.831 96.0185 139.831 94.2921C139.831 92.5657 140.411 91.1137 141.571 89.9362C142.731 88.7426 144.133 88.1458 145.781 88.1458C146.926 88.1458 147.965 88.4567 148.903 89.0764C149.841 89.6961 150.538 90.5238 150.996 91.5619ZM142.12 98.1061C143.142 99.126 144.368 99.6359 145.804 99.6359C147.237 99.6359 148.465 99.126 149.487 98.1061C150.494 97.0703 150.996 95.799 150.996 94.2921C150.996 92.7692 150.494 91.507 149.487 90.5009C148.481 89.4651 147.252 88.9483 145.804 88.9483C144.355 88.9483 143.126 89.4651 142.12 90.5009C141.129 91.5208 140.633 92.7852 140.633 94.2921C140.633 95.783 141.129 97.0543 142.12 98.1061Z" fill="#60326B"/>
<path d="M160.741 88.148C162.052 88.148 163.112 88.5711 163.921 89.4194C164.73 90.2837 165.134 91.4041 165.134 92.7852V100.178H164.334V92.7852C164.334 91.6397 164.005 90.7136 163.35 90.007C162.695 89.3005 161.801 88.9483 160.673 88.9483C159.406 88.9483 158.382 89.3919 157.595 90.2791C156.809 91.1663 156.418 92.3782 156.418 93.9171V100.18H155.593V88.4087H156.418V91.0223C157.226 89.1038 158.668 88.148 160.741 88.148Z" fill="#60326B"/>
<path d="M178.93 91.5368V83.696H179.752V100.175H178.928V97.0452C178.454 98.097 177.757 98.9247 176.835 99.5284C175.913 100.132 174.871 100.434 173.713 100.434C172.08 100.434 170.678 99.8462 169.505 98.6686C168.345 97.4773 167.765 96.0162 167.765 94.2898C167.765 92.5634 168.345 91.1115 169.505 89.9339C170.664 88.7403 172.067 88.1435 173.713 88.1435C174.873 88.1435 175.913 88.4453 176.835 89.049C177.759 89.6572 178.457 90.4849 178.93 91.5368ZM170.076 98.1061C171.098 99.1259 172.324 99.6359 173.76 99.6359C175.208 99.6359 176.428 99.1259 177.419 98.1061C178.426 97.0703 178.93 95.799 178.93 94.2921C178.93 92.7692 178.426 91.507 177.419 90.5009C176.444 89.4651 175.224 88.9483 173.76 88.9483C172.311 88.9483 171.082 89.4651 170.076 90.5009C169.085 91.5208 168.589 92.7852 168.589 94.2921C168.589 95.783 169.085 97.0543 170.076 98.1061Z" fill="#60326B"/>
<path d="M183.254 84.4735C183.254 84.1762 183.372 83.9636 183.609 83.8378C183.845 83.7121 184.083 83.7121 184.318 83.8378C184.554 83.9636 184.674 84.1762 184.674 84.4735C184.674 84.661 184.605 84.8302 184.467 84.9788C184.329 85.1275 184.163 85.2029 183.965 85.2029C183.767 85.2029 183.598 85.1275 183.46 84.9788C183.32 84.8325 183.254 84.6633 183.254 84.4735ZM184.374 100.178H183.549V88.4064H184.374V100.178Z" fill="#60326B"/>
<path d="M194.646 88.4064H203.957V100.178H203.158V89.1839H195.47V100.178H194.646V88.4064Z" fill="#60326B"/>
<path d="M213.794 88.148C215.44 88.148 216.845 88.7448 218.002 89.9384C219.162 91.116 219.742 92.568 219.742 94.2944C219.742 96.0208 219.162 97.4819 218.002 98.6732C216.842 99.8508 215.44 100.438 213.794 100.438C212.634 100.438 211.594 100.137 210.672 99.533C209.75 98.9293 209.052 98.1016 208.579 97.0497V104.89H207.755V88.411H208.579V91.5413C209.052 90.4895 209.75 89.6618 210.672 89.0581C211.592 88.4499 212.634 88.148 213.794 88.148ZM210.063 98.1061C211.085 99.126 212.312 99.6359 213.747 99.6359C215.196 99.6359 216.416 99.126 217.407 98.1061C218.413 97.0703 218.918 95.799 218.918 94.2921C218.918 92.7692 218.413 91.507 217.407 90.5009C216.431 89.4651 215.211 88.9483 213.747 88.9483C212.299 88.9483 211.07 89.4651 210.063 90.5009C209.072 91.5208 208.577 92.7852 208.577 94.2921C208.577 95.783 209.072 97.0543 210.063 98.1061Z" fill="#60326B"/>
<path d="M227.839 100.436C226.177 100.436 224.766 99.8485 223.606 98.6709C222.446 97.4796 221.866 96.0185 221.866 94.2921C221.866 92.5657 222.446 91.1137 223.606 89.9362C224.766 88.7426 226.177 88.1458 227.839 88.1458C229.516 88.1458 230.934 88.7426 232.093 89.9362C233.253 91.1137 233.833 92.5657 233.833 94.2921C233.833 96.0185 233.253 97.4796 232.093 98.6709C230.936 99.8485 229.516 100.436 227.839 100.436ZM224.157 98.1061C225.179 99.126 226.405 99.6359 227.841 99.6359C229.274 99.6359 230.503 99.126 231.525 98.1061C232.531 97.0703 233.033 95.799 233.033 94.2921C233.033 92.7692 232.531 91.507 231.525 90.5009C230.518 89.4651 229.289 88.9483 227.841 88.9483C226.392 88.9483 225.163 89.4651 224.157 90.5009C223.166 91.5208 222.67 92.7852 222.67 94.2921C222.668 95.783 223.166 97.0543 224.157 98.1061Z" fill="#60326B"/>
<path d="M241.816 88.148C243.494 88.148 244.852 88.7608 245.889 89.9842C246.942 91.2075 247.467 92.6595 247.467 94.3401C247.467 94.5596 247.458 94.6923 247.445 94.7403H236.806C236.897 96.1854 237.424 97.3699 238.384 98.2959C239.344 99.19 240.526 99.6381 241.93 99.6381C242.874 99.6381 243.721 99.4346 244.469 99.0253C245.216 98.6183 245.774 98.0604 246.14 97.3538L246.849 97.7769C246.391 98.5932 245.727 99.2403 244.858 99.7182C243.99 100.196 243.012 100.436 241.93 100.436C240.19 100.436 238.766 99.8645 237.653 98.7167C236.539 97.5711 235.982 96.0962 235.982 94.2898C235.982 92.5474 236.531 91.0886 237.628 89.911C238.728 88.7357 240.123 88.148 241.816 88.148ZM241.816 88.9483C240.412 88.9483 239.239 89.4194 238.293 90.3615C237.346 91.2875 236.844 92.488 236.782 93.9628H246.642C246.536 92.44 246.025 91.2235 245.109 90.3134C244.227 89.4034 243.13 88.9483 241.816 88.9483Z" fill="#60326B"/>
<path d="M252.066 94.0566L258.679 100.178H257.581L251.222 94.315V100.178H250.397V88.4064H251.222V93.8211L257.352 88.4064H258.45L252.066 94.0566Z" fill="#60326B"/>
<path d="M259.683 88.4064H268.97V89.1839H264.738V100.178H263.913V89.1839H259.681V88.4064H259.683Z" fill="#60326B"/>
<path d="M61.4023 0.541906C33.3485 -3.60597 7.24561 16.5046 3.21285 45.3751C-0.819904 74.2455 18.724 101.108 46.7777 105.259C49.2463 105.624 51.6992 105.8 54.1233 105.8C79.2531 105.8 101.29 86.7555 104.967 60.4254C108.998 31.5549 89.4561 4.69207 61.4023 0.541906Z" fill="#824292"/>
<path fill-rule="evenodd" clip-rule="evenodd" d="M25.2164 86.01C27.2894 81.7684 30.5912 78.725 34.8839 76.7562C39.8276 74.4856 39.0144 70.603 40.9786 67.6647C40.8008 68.1335 40.6653 68.6365 40.5764 69.1716C40.3942 70.2577 40.1409 71.3347 39.9943 72.4277C39.7476 74.2707 38.77 75.5352 37.2102 76.3812C36.9191 76.539 36.637 76.7425 36.3259 76.8339C31.7777 78.1968 28.9603 81.6426 26.4451 85.4658C24.3676 88.6213 22.419 90.3843 21.8902 94.5253C21.6502 92.1541 21.8058 90.8805 20.7792 90.8439C22.3123 89.7623 22.8056 90.9399 25.2164 86.01ZM41.694 65.0969C42.0406 64.4818 42.4184 63.8781 42.8294 63.2836C43.7515 61.9505 44.3803 60.2402 44.638 58.6144C45.1269 55.5275 46.951 52.5435 48.7819 50.0443C51.5548 46.2577 52.688 38.4467 51.7415 33.9192C51.6748 33.5991 51.5904 33.2813 51.5148 32.9634C53.0546 34.8956 52.7502 45.9215 50.4928 49.7973C49.7173 51.1304 47.8531 52.2165 47.3443 53.6708C46.3867 56.3964 47.3443 59.1449 50.2728 60.2973C46.9288 59.9292 45.1691 62.6228 41.694 65.0969Z" fill="white" stroke="white" stroke-width="2" stroke-miterlimit="10"/>
<path fill-rule="evenodd" clip-rule="evenodd" d="M63.4798 4.3948C64.7574 5.1951 65.3862 6.14861 65.3729 7.15471C64.293 5.25227 59.9959 2.87422 55.6631 4.57544C53.2813 5.51065 54.0189 7.66691 52.6214 9.57621C52.4636 9.79115 52.3325 9.99466 52.2214 10.1913C51.7726 7.40852 52.2525 4.68291 55.5787 3.3887C58.1628 2.4855 61.1468 2.93367 63.4798 4.3948ZM63.2843 10.4222C61.429 10.6486 59.7537 9.06173 57.4495 9.66767C55.6965 10.1273 57.3984 12.6562 57.4318 14.7165C57.454 16.0838 56.6474 16.6875 55.7231 17.0511C55.2588 17.234 55.9764 16.8499 54.1945 14.5678C54.0234 14.3506 53.6456 14.1425 53.2413 13.9276C53.99 16.0564 54.7722 17.7874 54.47 18.3224C53.7656 19.3056 52.9613 19.0244 51.8148 20.7485C48.8574 25.1982 46.5955 33.1715 42.4539 36.4093C37.5924 40.5847 38.2123 42.183 34.4839 48.0069C36.2104 45.869 37.4302 42.901 38.8033 41.074C39.8032 39.7455 40.7542 38.1929 42.0917 37.3468C45.3535 35.2798 47.4021 31.7676 49.2596 28.4497C50.2595 26.6616 52.9635 19.811 56.1964 20.4924C56.2186 20.3964 54.6677 20.0031 55.0121 18C55.3743 17.7668 55.7787 17.481 56.2053 17.2363C61.4956 14.2043 56.1009 12.4642 58.5005 10.2576C58.7405 10.0358 59.447 10.1113 59.8159 10.3079C61.7623 11.3529 62.0644 11.513 63.2843 10.4222Z" fill="white" stroke="white" stroke-width="2" stroke-miterlimit="10"/>
<path fill-rule="evenodd" clip-rule="evenodd" d="M71.5364 72.0778C70.4188 67.2188 66.4549 63.5969 63.2931 59.9315C61.5756 57.9399 59.9847 55.8293 58.3805 53.7348C57.4695 52.5435 57.9072 49.8339 58.736 48.5191C59.9536 46.5915 60.338 45.3911 60.8601 42.7775C62.371 35.202 65.1618 35.8308 64.493 32.154C61.2556 28.1662 60.458 25.4474 58.165 21.4047C59.807 23.4261 61.5734 27 64.1197 29.6044C66.2527 31.7858 65.9505 34.4269 63.5575 36.8323C62.7243 37.6692 61.8644 39.4734 61.5711 42.2676C61.1512 46.2691 59.5692 48.7615 60.1869 52.4406C60.2158 52.6144 69.7055 65.9726 70.9809 68.0031C73.1828 71.5108 73.245 69.9971 73.5961 74.0603C73.7161 75.4323 74.1049 80.7189 74.2516 82.0863C73.4317 76.7333 72.6651 76.9757 71.5364 72.0778Z" fill="white" stroke="white" stroke-width="2" stroke-miterlimit="10"/>
<path fill-rule="evenodd" clip-rule="evenodd" d="M54.9343 29.0671C51.3615 29.8354 50.5327 34.1913 48.1642 37.1022C45.2802 40.6464 41.6318 44.6456 38.4767 47.9383C38.1056 48.3248 37.8479 48.7455 37.6546 49.1891C36.9436 47.7325 31.6754 52.7928 30.5534 54.3819C32.3176 50.9018 42.2561 43.7196 45.469 39.4757C47.7354 36.4802 51.0327 28.907 54.9343 29.0671ZM36.8347 51.4345C34.7439 51.526 32.7931 54.7638 33.4752 56.9658C34.1995 52.3835 37.0969 50.6891 35.4193 54.9261C35.3127 55.1983 35.4882 55.5733 35.8504 55.196C36.5281 53.8514 36.5125 52.651 36.8347 51.4345ZM31.5643 58.7493C31.4644 58.7562 31.3644 58.7539 31.2644 58.7402C28.8114 58.4818 29.7446 55.9117 30.309 55.0336C30.1445 56.7143 30.0446 57.5786 31.5643 58.7493Z" fill="white" stroke="white" stroke-width="2" stroke-miterlimit="10"/>
<path fill-rule="evenodd" clip-rule="evenodd" d="M52.2947 61.4406C53.1613 62.1952 54.0789 62.8949 54.881 63.7135C59.0471 67.9734 63.7331 71.1312 68.1169 74.9086C69.1434 75.7935 69.0701 76.3355 68.9057 78.071C68.4102 83.3462 70.4744 87.709 70.9076 92.6C69.5745 86.6183 66.8682 82.5847 67.9681 77.9567C68.6302 75.4345 63.9509 73.0199 63.4443 72.7066C61.1868 71.3118 54.6388 65.8675 52.2947 61.4406Z" fill="white" stroke="white" stroke-width="2" stroke-miterlimit="10"/>
<path fill-rule="evenodd" clip-rule="evenodd" d="M0.486572 105.622C1.06205 104.06 1.62641 102.522 2.19966 100.985C2.24188 100.873 2.30409 100.749 2.39074 100.674C6.51015 97.132 9.28531 92.4582 12.2404 87.9788C19.515 76.9437 18.7351 77.8698 25.9096 66.7638C26.9295 65.1861 29.0914 61.8705 30.189 60.1922C29.8779 63.3888 4.04829 102.794 0.486572 105.622Z" fill="white" stroke="white" stroke-width="2" stroke-miterlimit="10"/>
<path fill-rule="evenodd" clip-rule="evenodd" d="M44.6669 77.1769C43.8426 78.382 42.6272 79.3766 41.423 80.2158C40.032 81.1853 38.4767 81.9148 36.9614 82.683C33.4108 84.4803 30.3245 86.9201 27.4272 89.7235C27.5983 89.4216 27.7449 89.0992 27.9427 88.8157C30.1112 85.7036 36.0748 80.2981 39.681 78.9856C45.1846 76.978 48.9374 71.2707 52.6947 66.6083C49.8351 71.2455 45.4002 76.1091 44.6669 77.1769Z" fill="white" stroke="white" stroke-width="2" stroke-miterlimit="10"/>
<path fill-rule="evenodd" clip-rule="evenodd" d="M76.4757 51.9376C76.9267 51.2745 77.2667 50.7714 77.6066 50.2684C78.4332 49.0473 78.131 47.9909 76.769 47.4673C76.2713 47.2752 75.4492 46.8065 74.9292 46.6761C70.1721 43.8934 69.1589 42.6837 66.5104 37.8659C68.0458 39.1853 69.6655 41.3095 71.0631 42.8712C73.7272 45.8461 77.0445 46.9002 80.9039 46.4658C81.3127 46.42 81.7727 46.8636 82.2104 47.0809C81.9371 47.4238 81.6571 47.7623 81.3905 48.1121C80.9017 48.7524 80.3196 49.3469 79.9552 50.0557C79.1064 51.7112 78.4154 52.1822 76.4757 51.9376Z" fill="white" stroke="white" stroke-width="2" stroke-miterlimit="10"/>
<path fill-rule="evenodd" clip-rule="evenodd" d="M63.3509 77.792C60.4224 85.5527 57.3251 93.2242 52.4458 99.9697C52.6258 98.7875 52.7147 97.5802 53.0235 96.4346C53.1613 95.9292 53.8278 95.6023 54.1145 95.1084C55.4009 92.8904 56.7163 90.6861 57.8761 88.3972C59.3981 85.3904 60.7824 82.3103 62.2311 79.2646C62.4977 78.7021 62.7932 78.1533 63.0776 77.5977C63.1687 77.6617 63.2598 77.728 63.3509 77.792Z" fill="white" stroke="white" stroke-width="2" stroke-miterlimit="10"/>
<path fill-rule="evenodd" clip-rule="evenodd" d="M69.7567 63.8164C71.4853 60.3888 73.2117 56.9612 74.9381 53.5336C75.1892 55.5389 71.9141 62.1312 70.0455 64.0085C69.95 63.9445 69.8522 63.8804 69.7567 63.8164Z" fill="white" stroke="white" stroke-width="2" stroke-miterlimit="10"/>
<path fill-rule="evenodd" clip-rule="evenodd" d="M62.8599 11.7553C63.8731 11.1403 64.3885 10.3903 65.6239 10.1021C65.9616 11.2043 65.7395 11.689 65.6217 12.3339C64.6085 12.4596 64.4219 11.4581 62.8599 11.7553Z" fill="white" stroke="white" stroke-width="2" stroke-miterlimit="10"/>
<path fill-rule="evenodd" clip-rule="evenodd" d="M86.6676 100.864C86.672 100.987 86.712 101.445 86.7009 101.493C85.8966 102.409 85.35 103.416 82.5459 104.358C80.9395 104.897 79.1309 105.839 77.8755 104.659C76.5912 105.233 75.307 105.812 71.5231 103.674C71.8497 103.274 71.532 102.263 71.8786 102.48C72.2919 102.739 73.1095 103.658 76.0957 103.132C76.8601 102.997 78.0777 104.204 80.1529 104.136C83.2303 104.037 86.0921 102.581 86.6676 100.864Z" fill="white" stroke="white" stroke-width="2" stroke-miterlimit="10"/>
<path fill-rule="evenodd" clip-rule="evenodd" d="M72.5763 99.5077C73.2473 100.939 73.8205 101.134 74.3738 100.923C74.436 101.108 74.516 101.284 74.6271 101.412C73.8539 101.79 73.1006 101.886 72.4474 101.371C72.1252 101.115 72.4696 99.2768 72.5763 99.5077Z" fill="white" stroke="white" stroke-width="2" stroke-miterlimit="10"/>
<path fill-rule="evenodd" clip-rule="evenodd" d="M72.9784 97.2829C75.938 94.9209 75.0736 91.8523 74.8492 88.7265C75.7691 91.6785 75.8957 97.1617 77.6066 97.587C79.0197 98.8149 81.5749 99.5741 84.4767 99.4071C85.1678 99.3683 85.5655 99.286 86.1654 99.5535C86.8964 99.8782 85.8099 100.619 83.9501 100.107C80.4618 99.1488 78.4154 99.2585 77.831 99.4346C76.6668 99.5878 76.5023 99.1922 76.4512 98.911V98.9064C76.449 98.8904 76.4468 98.8721 76.4468 98.8561C76.1535 95.1472 74.6337 95.8264 72.9784 97.2829Z" fill="white" stroke="white" stroke-width="2" stroke-miterlimit="10"/>
<path fill-rule="evenodd" clip-rule="evenodd" d="M19.2172 91.4727C18.8773 90.6838 17.6241 91.539 16.1443 92.0604C14.9312 92.488 13.7558 92.7029 13.6025 92.9796C12.9203 94.2189 14.3912 97.2692 15.42 98.9864C15.8932 99.7753 16.4643 99.6038 16.4687 99.773C16.5332 102.069 17.2197 102.864 19.1839 104.406C19.686 104.799 20.757 105.967 21.3636 106.013C22.1235 106.073 23.8454 106.365 24.0565 104.815C22.439 105.638 21.3325 105.208 20.2237 104.198C16.1754 100.512 18.3707 102.377 15.6799 96.5581C13.7113 92.2982 16.902 93.9582 18.2151 91.6511C18.6195 90.9422 19.2372 91.5185 19.2172 91.4727Z" fill="white" stroke="white" stroke-width="2" stroke-miterlimit="10"/>
<path fill-rule="evenodd" clip-rule="evenodd" d="M22.63 98.0489C22.5656 99.318 21.9257 101.026 22.0323 102.313C22.059 102.643 22.6145 102.81 22.7634 103.07C22.3345 103.388 21.5457 103.178 21.3591 102.524C21.1525 101.806 21.0991 100.717 21.208 99.7273C21.5391 96.7227 20.2726 96.0276 20.2837 96.0344C20.7459 96.3934 22.6656 97.3744 22.63 98.0489Z" fill="white" stroke="white" stroke-width="2" stroke-miterlimit="10"/>
<path fill-rule="evenodd" clip-rule="evenodd" d="M64.9751 8.5358C65.1462 8.33458 65.224 8.298 65.2751 7.89784C64.333 6.51217 61.0512 4.77207 58.7582 5.11049C54.7032 5.71186 56.0497 7.99845 53.7056 10.9482C53.1079 11.6982 52.5391 11.7599 52.5591 11.7553C54.5077 11.25 54.8166 11.1928 55.5787 8.99312C56.4897 6.37269 60.8424 5.3643 64.9751 8.5358Z" fill="white" stroke="white" stroke-width="2" stroke-miterlimit="10"/>
<path fill-rule="evenodd" clip-rule="evenodd" d="M64.5352 9.08918C61.7445 8.84222 57.9917 5.71874 56.2941 9.80716C56.8718 8.63186 58.8893 8.29801 59.9625 8.83079C61.5023 9.59451 63.7464 9.71799 64.5352 9.08918Z" fill="white" stroke="white" stroke-width="2" stroke-miterlimit="10"/>
<path fill-rule="evenodd" clip-rule="evenodd" d="M51.7237 12.407C50.7216 12.2447 49.2796 13.2759 48.8685 14.7165C48.2908 16.7378 47.0821 22.8041 45.3135 23.3941C45.4135 23.4329 46.5911 22.5206 47.4021 22.3079C50.9927 21.3682 48.5708 15.5099 51.2749 12.9649C51.8481 12.4253 51.4659 12.3659 51.7237 12.407Z" fill="white" stroke="white" stroke-width="2" stroke-miterlimit="10"/>
<path fill-rule="evenodd" clip-rule="evenodd" d="M65.9506 14.7256C65.9328 14.8445 65.8084 14.904 65.7217 14.9131C64.7441 15.0206 65.6617 16.1479 64.9485 16.2805C65.0462 16.5297 65.6084 16.7515 64.8663 17.3552C64.2153 17.8857 65.3195 19.4177 63.1021 18.9718C61.6801 18.686 60.6602 18.2081 60.0647 17.7599C60.0247 17.7828 59.9692 17.8102 59.8914 17.8445C59.527 18.0046 58.6227 20.0442 58.6494 19.9368C58.7205 19.6441 59.0693 16.8842 59.5048 17.1563L59.5093 17.1585C59.5181 17.1654 59.527 17.1723 59.5359 17.1791C60.9691 18.3544 62.2222 18.4802 62.9199 18.4985C63.8286 18.5214 64.2752 18.9558 64.4152 17.2249C64.3441 16.7858 63.882 16.9322 63.7042 16.1387C63.8375 15.9421 65.0796 16.1067 65.024 15.8117C64.9707 15.5282 64.5574 14.9451 64.6752 14.3895C64.7263 14.154 65.404 14.2317 65.3262 13.9436C65.244 13.6326 65.2618 13.0495 65.3595 12.6883C65.4906 14.1105 65.8061 14.1951 65.9506 14.7256Z" fill="white" stroke="white" stroke-width="2" stroke-miterlimit="10"/>
</g>
<defs>
<clipPath id="clip0_118_1302">
<rect width="326" height="106.306" fill="white"/>
</clipPath>
</defs>
</svg>
