<!-- icon666.com - MILLIONS vector ICONS FREE --><svg version="1.1" id="Capa_1" xmlns="http://www.w3.org/2000/svg" xmlns:xlink="http://www.w3.org/1999/xlink" x="0px" y="0px" viewBox="0 0 512 512" style="enable-background:new 0 0 512 512;" xml:space="preserve"><g><g><path d="M68.229,97.571c-0.13-0.64-0.319-1.27-0.569-1.87c-0.25-0.61-0.561-1.19-0.92-1.73c-0.36-0.55-0.78-1.06-1.24-1.52 c-0.46-0.46-0.97-0.88-1.521-1.24c-0.54-0.36-1.12-0.67-1.729-0.92c-0.601-0.25-1.23-0.44-1.87-0.57c-1.29-0.26-2.62-0.26-3.91,0 c-0.63,0.13-1.26,0.32-1.87,0.57c-0.6,0.25-1.18,0.56-1.72,0.92c-0.55,0.36-1.061,0.78-1.521,1.24c-0.46,0.46-0.88,0.97-1.25,1.52 c-0.359,0.54-0.67,1.12-0.92,1.73c-0.25,0.6-0.439,1.23-0.569,1.87s-0.19,1.3-0.19,1.95c0,0.65,0.061,1.31,0.19,1.96 c0.13,0.63,0.319,1.26,0.569,1.87c0.25,0.6,0.561,1.18,0.92,1.72c0.37,0.55,0.79,1.06,1.25,1.52c0.46,0.46,0.971,0.88,1.521,1.25 c0.54,0.36,1.12,0.67,1.72,0.91c0.61,0.26,1.24,0.45,1.87,0.58c0.65,0.13,1.311,0.19,1.96,0.19c0.65,0,1.311-0.06,1.95-0.19 c0.64-0.13,1.269-0.32,1.87-0.58c0.609-0.24,1.189-0.55,1.729-0.91c0.551-0.37,1.061-0.79,1.521-1.25 c0.46-0.46,0.88-0.97,1.24-1.52c0.359-0.54,0.67-1.12,0.92-1.72c0.25-0.61,0.439-1.24,0.569-1.87c0.13-0.65,0.2-1.31,0.2-1.96 C68.429,98.87,68.359,98.211,68.229,97.571z"></path></g></g><g><g><path d="M460.639,420.04c-0.459-0.46-0.969-0.88-1.519-1.24c-0.54-0.36-1.12-0.67-1.721-0.92c-0.609-0.25-1.239-0.44-1.869-0.57 c-1.29-0.26-2.62-0.26-3.91,0c-0.641,0.13-1.27,0.32-1.87,0.57c-0.61,0.25-1.19,0.56-1.73,0.92c-0.55,0.36-1.06,0.78-1.52,1.24 c-0.46,0.46-0.88,0.97-1.24,1.52c-0.36,0.54-0.67,1.12-0.92,1.73c-0.25,0.6-0.44,1.23-0.57,1.87s-0.2,1.3-0.2,1.95 s0.07,1.31,0.2,1.95s0.32,1.27,0.57,1.87c0.25,0.61,0.56,1.19,0.92,1.73c0.36,0.55,0.78,1.06,1.24,1.52 c0.46,0.46,0.97,0.88,1.52,1.24c0.54,0.36,1.12,0.67,1.73,0.92c0.6,0.25,1.229,0.45,1.87,0.57c0.64,0.13,1.3,0.2,1.949,0.2 c0.65,0,1.311-0.07,1.961-0.2c0.63-0.12,1.26-0.32,1.869-0.57c0.601-0.25,1.181-0.56,1.721-0.92c0.55-0.36,1.06-0.78,1.52-1.24 c0.47-0.46,0.88-0.97,1.25-1.52c0.36-0.54,0.67-1.12,0.92-1.73c0.25-0.6,0.44-1.23,0.57-1.87c0.13-0.64,0.189-1.3,0.189-1.95 C463.569,424.48,462.509,421.9,460.639,420.04z"></path></g></g><g><g><path d="M452.62,65.068H291.819V30.305c0-5.523-4.478-10-10-10H230.18c-5.522,0-10,4.477-10,10v34.764H109.524 c-9.982-17.952-29.14-30.132-51.097-30.132C26.211,34.936,0,61.146,0,93.363v308.882v0.213 c0.145,32.591,26.737,59.105,59.28,59.105h343.195c9.981,17.953,29.14,30.132,51.097,30.132c32.217,0,58.428-26.211,58.428-58.428 V124.391v-0.005v-0.242C511.988,91.569,485.351,65.068,452.62,65.068z M240.18,40.305L240.18,40.305h31.64v32.789 c-0.593-0.114-1.192-0.199-1.787-0.3c-0.557-0.095-1.11-0.199-1.67-0.282c-0.119-0.018-0.237-0.041-0.357-0.059 c-0.711-0.103-1.427-0.175-2.141-0.26c-0.534-0.063-1.065-0.138-1.602-0.191c-0.915-0.09-1.834-0.15-2.753-0.21 c-0.454-0.03-0.903-0.074-1.359-0.097c-1.379-0.068-2.762-0.105-4.15-0.105s-2.771,0.037-4.15,0.105 c-0.456,0.022-0.905,0.067-1.359,0.097c-0.919,0.06-1.838,0.12-2.753,0.21c-0.537,0.053-1.068,0.128-1.602,0.191 c-0.714,0.085-1.43,0.157-2.142,0.26c-0.119,0.017-0.238,0.041-0.357,0.059c-0.56,0.084-1.113,0.187-1.67,0.282 c-0.596,0.101-1.195,0.186-1.788,0.3V40.305z M234.074,95.5c0.225-0.083,0.453-0.158,0.679-0.238 c0.702-0.25,1.408-0.493,2.121-0.719c0.32-0.101,0.642-0.194,0.963-0.29c0.633-0.189,1.268-0.373,1.909-0.543 c0.358-0.095,0.718-0.183,1.078-0.272c0.616-0.152,1.235-0.296,1.857-0.43c0.375-0.08,0.751-0.157,1.127-0.231 c0.619-0.121,1.243-0.232,1.869-0.335c0.38-0.062,0.759-0.125,1.14-0.18c0.639-0.093,1.282-0.172,1.927-0.245 c0.37-0.042,0.74-0.089,1.111-0.125c0.695-0.067,1.394-0.116,2.095-0.16c0.323-0.02,0.644-0.049,0.967-0.065 c1.022-0.049,2.049-0.078,3.083-0.078s2.061,0.029,3.082,0.078c0.323,0.016,0.645,0.044,0.967,0.065 c0.701,0.044,1.4,0.093,2.095,0.16c0.371,0.036,0.741,0.082,1.111,0.125c0.645,0.074,1.288,0.152,1.927,0.245 c0.381,0.055,0.76,0.118,1.14,0.18c0.626,0.103,1.249,0.213,1.869,0.335c0.376,0.073,0.752,0.15,1.127,0.231 c0.623,0.134,1.241,0.278,1.857,0.43c0.36,0.089,0.72,0.177,1.078,0.272c0.641,0.17,1.276,0.354,1.909,0.543 c0.321,0.096,0.643,0.188,0.963,0.29c0.713,0.226,1.419,0.469,2.121,0.719c0.226,0.081,0.454,0.155,0.679,0.238 c24.205,8.944,41.509,32.25,41.509,59.525c0,21.839-11.094,41.134-27.942,52.55c-0.043,0.029-0.086,0.057-0.128,0.086 c-0.794,0.535-1.601,1.053-2.419,1.553c-0.042,0.026-0.084,0.052-0.126,0.078c-2.579,1.566-5.279,2.952-8.081,4.144 c-0.049,0.021-0.098,0.042-0.147,0.062c-2.776,1.172-5.652,2.15-8.611,2.921c-0.123,0.032-0.247,0.062-0.371,0.094 c-0.843,0.214-1.693,0.41-2.549,0.59c-0.154,0.032-0.308,0.067-0.463,0.098c-1.919,0.388-3.869,0.687-5.846,0.897 c-0.25,0.026-0.501,0.048-0.752,0.071c-0.738,0.07-1.48,0.126-2.226,0.17c-0.277,0.016-0.554,0.035-0.832,0.047 c-0.975,0.045-1.954,0.075-2.94,0.075c-0.561,0-1.115-0.028-1.673-0.042l-0.378-0.013c-0.019-0.001-0.037,0.002-0.056,0.002 c-0.126-0.004-0.253-0.005-0.379-0.01c-0.495-0.019-0.989-0.043-1.482-0.074c-0.469-0.029-0.935-0.068-1.401-0.107 c-0.715-0.06-1.428-0.132-2.139-0.216c-0.538-0.064-1.076-0.128-1.61-0.205c-0.458-0.066-0.913-0.142-1.369-0.218 c-0.478-0.08-0.954-0.165-1.428-0.256c-0.425-0.081-0.85-0.16-1.273-0.25c-0.817-0.173-1.629-0.358-2.434-0.563 c-0.312-0.079-0.62-0.17-0.93-0.253c-0.602-0.163-1.203-0.332-1.798-0.512c-0.326-0.098-0.65-0.2-0.975-0.304 c-0.68-0.218-1.355-0.447-2.025-0.687c-0.188-0.067-0.378-0.13-0.565-0.199c-0.884-0.326-1.758-0.672-2.624-1.036 c-0.14-0.059-0.278-0.122-0.418-0.182c-0.767-0.33-1.527-0.673-2.278-1.032c-0.141-0.067-0.283-0.134-0.424-0.203 c-1.782-0.867-3.52-1.811-5.204-2.835c-0.006-0.004-0.011-0.007-0.017-0.011c-0.856-0.521-1.698-1.062-2.527-1.622 c-0.02-0.014-0.04-0.027-0.061-0.041c-16.862-11.413-27.968-30.718-27.968-52.568C192.565,127.75,209.869,104.443,234.074,95.5z M256,256.386l30.861,64.16c-10.231,3.289-21.131,5.073-32.441,5.073c-10.175,0-20.155-1.437-29.698-4.206L256,256.386z M206.086,314.017c-7.643-3.912-14.837-8.771-21.423-14.517l33.682-70.025c0.394,0.201,0.795,0.384,1.192,0.577 c0.217,0.106,0.434,0.21,0.651,0.314c0.962,0.458,1.931,0.897,2.908,1.317c0.22,0.095,0.437,0.193,0.658,0.286 c1.178,0.494,2.363,0.968,3.562,1.407c0.077,0.028,0.156,0.052,0.233,0.08c1.067,0.388,2.143,0.751,3.226,1.094 c0.458,0.146,0.921,0.279,1.382,0.417c0.714,0.213,1.429,0.418,2.148,0.611c0.539,0.145,1.079,0.287,1.623,0.422 c0.671,0.166,1.345,0.318,2.02,0.467c0.556,0.123,1.108,0.253,1.668,0.364c1.099,0.219,2.202,0.419,3.311,0.594L206.086,314.017z M269.079,237.436c1.22-0.192,2.433-0.419,3.64-0.665c0.101-0.02,0.2-0.045,0.3-0.066c1.186-0.246,2.364-0.521,3.536-0.818 c0.194-0.049,0.388-0.1,0.582-0.151c1.168-0.305,2.329-0.635,3.482-0.991c0.08-0.025,0.161-0.048,0.241-0.073 c3.827-1.195,7.563-2.672,11.191-4.417c0.06-0.029,0.12-0.058,0.18-0.087c0.476-0.227,0.955-0.447,1.426-0.687l32.703,67.989 c-6.368,5.873-13.452,10.982-21.107,15.172L269.079,237.436z M58.428,54.936c15.973,0,29.697,9.798,35.488,23.697 c0.03,0.08,0.05,0.162,0.082,0.241c0.709,1.723,1.287,3.484,1.734,5.275c0.007,0.03,0.013,0.06,0.021,0.09 c0.136,0.551,0.259,1.104,0.37,1.66c0.033,0.168,0.06,0.339,0.091,0.507c0.08,0.43,0.157,0.86,0.222,1.293 c0.042,0.285,0.074,0.572,0.11,0.859c0.042,0.33,0.088,0.66,0.121,0.991c0.038,0.388,0.063,0.781,0.09,1.173 c0.016,0.24,0.04,0.479,0.052,0.72c0.032,0.637,0.049,1.278,0.049,1.923v264.904c-7.895-6.907-17.664-11.716-28.429-13.581 v-205.44c0-5.523-4.477-10-10-10c-5.522,0-10,4.477-10,10v205.439c-0.431,0.075-0.862,0.152-1.29,0.236 c-0.399,0.078-0.794,0.164-1.189,0.251c-0.514,0.112-1.025,0.229-1.533,0.355c-0.396,0.098-0.79,0.2-1.183,0.306 c-0.502,0.135-1,0.278-1.496,0.426c-0.389,0.116-0.776,0.234-1.161,0.358c-0.496,0.159-0.987,0.328-1.477,0.501 c-0.374,0.132-0.749,0.262-1.119,0.401c-0.5,0.187-0.993,0.387-1.486,0.587c-0.351,0.143-0.703,0.281-1.051,0.43 c-0.521,0.224-1.035,0.462-1.548,0.701c-0.309,0.144-0.621,0.28-0.927,0.429c-0.614,0.299-1.219,0.615-1.821,0.934 c-0.196,0.104-0.396,0.2-0.591,0.306c-0.792,0.431-1.572,0.881-2.341,1.347c-0.208,0.126-0.409,0.262-0.615,0.391 c-0.558,0.348-1.115,0.699-1.661,1.066c-0.28,0.188-0.551,0.386-0.828,0.578c-0.463,0.323-0.925,0.645-1.378,0.981 c-0.293,0.217-0.579,0.442-0.868,0.664c-0.425,0.327-0.849,0.656-1.264,0.994c-0.291,0.237-0.577,0.48-0.863,0.723 c-0.244,0.207-0.496,0.406-0.736,0.616V93.363H20C20,72.175,37.238,54.936,58.428,54.936z M59.28,441.564 c-21.563,0-39.184-17.583-39.28-39.15v-0.168c0-21.189,17.238-38.428,38.428-38.428s38.429,17.239,38.429,38.428 c0,5.523,4.478,10,10,10c2.224,0,4.271-0.735,5.932-1.963l0.072,31.281H59.28z M116.789,90.693 c-0.011-0.244-0.025-0.487-0.039-0.73c-0.042-0.727-0.097-1.451-0.166-2.173c-0.016-0.173-0.028-0.348-0.046-0.52 c-0.077-0.736-0.166-1.47-0.27-2.202h94.347c-22.879,14.895-38.049,40.679-38.049,69.956c0,25.225,11.268,47.853,29.016,63.165 l-84.725,176.143V93.363C116.857,92.47,116.83,91.581,116.789,90.693z M132.842,433.828l-0.062-26.464l42.944-89.279 c6.781,5.421,14.047,10.091,21.688,13.965l-42.522,88.403L132.842,433.828z M158.649,441.564l9.153-5.552 c1.656-1.005,2.985-2.469,3.825-4.215l44.32-92.141c12.296,3.925,25.247,5.964,38.473,5.964c14.414,0,28.268-2.435,41.18-6.905 l44.773,93.082c0.84,1.746,2.169,3.21,3.825,4.215l9.153,5.552H158.649z M379.157,433.827l-22.048-13.375l-43.18-89.77 c7.647-4.106,14.822-8.977,21.426-14.51l43.864,91.191L379.157,433.827z M405.141,114.384c-5.522,0-10,4.477-10,10v269.945 l-44.756-93.047c18.846-22.057,30.245-50.659,30.245-81.878c0-5.523-4.478-10-10-10c-5.522,0-10,4.477-10,10 c0,23.043-7.379,44.392-19.894,61.817l-30.32-63.036c17.748-15.312,29.016-37.94,29.016-63.165 c0-29.277-15.17-55.062-38.049-69.956H452.62c21.706,0.003,39.372,17.537,39.38,39.084v0.238c0,0.351-0.017,0.698-0.027,1.046 c-0.008,0.31-0.008,0.622-0.024,0.93c-0.025,0.486-0.068,0.967-0.11,1.448c-0.015,0.166-0.021,0.335-0.038,0.5 c-0.047,0.457-0.111,0.909-0.174,1.361c-0.026,0.186-0.043,0.375-0.071,0.56c-0.071,0.464-0.16,0.921-0.247,1.379 c-0.032,0.17-0.057,0.342-0.091,0.511c-0.076,0.367-0.167,0.728-0.253,1.092c-0.06,0.255-0.112,0.514-0.178,0.767 c-0.105,0.408-0.227,0.809-0.345,1.212c-0.06,0.203-0.111,0.408-0.174,0.609c-0.108,0.347-0.232,0.688-0.35,1.031 c-0.086,0.251-0.165,0.506-0.256,0.754c-0.076,0.208-0.164,0.41-0.243,0.616c-0.146,0.377-0.288,0.757-0.446,1.128 c-0.041,0.097-0.088,0.191-0.13,0.287c-5.179,11.945-16.249,20.765-29.527,22.764c-1.068,0.161-2.151,0.27-3.245,0.341 c-0.828,0.054-1.66,0.09-2.501,0.09c-21.189,0-38.429-17.239-38.429-38.428C415.141,118.861,410.663,114.384,405.141,114.384z M492.001,433.268H492c0,21.189-17.238,38.428-38.428,38.428c-15.982,0-29.712-9.809-35.497-23.721 c-0.028-0.072-0.045-0.146-0.074-0.217c-0.706-1.715-1.282-3.468-1.727-5.25c-0.019-0.077-0.035-0.155-0.054-0.232 c-0.123-0.505-0.237-1.013-0.339-1.523c-0.041-0.207-0.074-0.417-0.112-0.625c-0.072-0.393-0.144-0.787-0.203-1.183 c-0.046-0.31-0.08-0.623-0.119-0.935c-0.038-0.307-0.082-0.613-0.112-0.922c-0.04-0.402-0.065-0.809-0.093-1.214 c-0.015-0.227-0.038-0.454-0.049-0.682c-0.032-0.638-0.049-1.279-0.049-1.925V168.365c7.895,6.907,17.664,11.716,28.429,13.581 v205.439c0,5.523,4.478,10,10,10c5.522,0,10-4.477,10-10v-205.44c0.432-0.075,0.862-0.152,1.29-0.236 c0.398-0.078,0.793-0.164,1.188-0.25c0.514-0.112,1.026-0.229,1.535-0.355c0.395-0.098,0.789-0.2,1.181-0.306 c0.502-0.135,1.002-0.278,1.499-0.426c0.388-0.116,0.775-0.233,1.159-0.357c0.496-0.16,0.988-0.329,1.478-0.501 c0.375-0.132,0.749-0.262,1.12-0.401c0.498-0.187,0.991-0.386,1.483-0.586c0.352-0.143,0.706-0.282,1.055-0.432 c0.517-0.222,1.027-0.459,1.536-0.696c0.313-0.145,0.63-0.284,0.94-0.435c0.607-0.295,1.204-0.607,1.8-0.923 c0.203-0.107,0.41-0.207,0.612-0.317c0.79-0.431,1.569-0.88,2.337-1.345c0.215-0.13,0.422-0.271,0.635-0.404 c0.551-0.344,1.101-0.69,1.64-1.052c0.284-0.191,0.56-0.392,0.84-0.587c0.458-0.32,0.916-0.639,1.365-0.971 c0.297-0.22,0.587-0.448,0.879-0.673c0.421-0.324,0.841-0.649,1.252-0.985c0.295-0.24,0.584-0.486,0.874-0.731 c0.242-0.205,0.491-0.402,0.73-0.611V433.268z"></path></g></g><g><g><path d="M256,106.318c-26.856,0-48.706,21.85-48.706,48.706c0,26.857,21.85,48.706,48.706,48.706s48.706-21.849,48.706-48.706 C304.706,128.167,282.856,106.318,256,106.318z M256,183.73c-15.828,0-28.706-12.877-28.706-28.706 c0-15.828,12.878-28.706,28.706-28.706s28.706,12.877,28.706,28.706C284.706,170.852,271.828,183.73,256,183.73z"></path></g></g></svg>