<!-- icon666.com - MILLIONS vector ICONS FREE --><svg version="1.1" id="Layer_1" xmlns="http://www.w3.org/2000/svg" xmlns:xlink="http://www.w3.org/1999/xlink" x="0px" y="0px" viewBox="0 0 512 512" style="enable-background:new 0 0 512 512;" xml:space="preserve"><g><g><g><path d="M508.833,156.714C452.17,72.097,357.661,21.576,256.013,21.572c-0.003,0-0.005,0-0.008,0c-0.001,0-0.001,0-0.002,0 c-0.001,0-0.002,0-0.003,0c-101.668,0-196.183,50.524-252.833,135.145L0,161.448l3.169,4.731 c55.066,82.265,145.917,132.295,244.332,135.026v27.434H221.23v126.999c-0.015,9.288,3.604,18.025,10.176,24.594 c6.566,6.574,15.301,10.196,24.599,10.196c9.27,0,18.007-3.617,24.586-10.194c6.564-6.559,10.181-15.288,10.196-24.586V328.639 h-26.271v-27.435c98.393-2.737,189.237-52.766,244.316-135.023l3.167-4.733L508.833,156.714z M273.774,455.638 c-0.008,4.751-1.859,9.211-5.204,12.565c-3.369,3.359-7.828,5.215-12.564,5.215c-4.749,0-9.206-1.848-12.562-5.21 c-3.359-3.356-5.204-7.813-5.199-12.559V345.652h35.53V455.638z M378.859,161.455c0,67.246-54.295,122.031-121.338,122.848 c-0.507,0.003-1.014,0.012-1.522,0.012c-0.499,0-0.997-0.009-1.496-0.011c-67.058-0.808-121.366-55.6-121.366-122.84 c0-67.75,55.118-122.874,122.865-122.875c0.003,0,0.006,0,0.01,0C323.752,38.592,378.859,93.705,378.859,161.455z M20.544,161.448c36.65-52.479,88.977-90.463,148.348-109.354c-32.138,25.653-52.77,65.144-52.77,109.369 c0,44.21,20.625,83.689,52.753,109.34C109.51,251.911,57.189,213.927,20.544,161.448z M343.129,270.799 c32.123-25.653,52.745-65.133,52.744-109.344c0-44.217-20.627-83.702-52.756-109.355 c59.358,18.893,111.681,56.874,148.339,109.347C454.802,213.924,402.484,251.905,343.129,270.799z"></path><path d="M162.949,161.46c0,51.305,41.746,93.048,93.056,93.048c51.305,0,93.043-41.741,93.041-93.056 c0-51.315-41.736-93.056-93.041-93.056C204.695,68.397,162.949,110.148,162.949,161.46z M332.032,161.455 c0,41.925-34.109,76.04-76.027,76.04c-41.933,0-76.042-34.107-76.042-76.032c0-41.935,34.112-76.05,76.042-76.05 C297.923,85.413,332.032,119.528,332.032,161.455z"></path><path d="M223.898,161.453c0,17.702,14.403,32.102,32.105,32.102c17.7,0,32.1-14.4,32.1-32.102s-14.4-32.102-32.1-32.102 C238.3,129.35,223.898,143.75,223.898,161.453z M271.089,161.455c0,8.318-6.774,15.086-15.086,15.086 c-8.317,0-15.091-6.766-15.091-15.086c0-8.32,6.771-15.089,15.091-15.089C264.315,146.367,271.089,153.138,271.089,161.455z"></path><path d="M193.426,161.45l17.014,0.008c0.003-12.16,4.736-23.593,13.33-32.2l-12.04-12.022 C199.928,129.053,193.428,144.754,193.426,161.45z"></path></g></g></g></svg>