<!-- icon666.com - MILLIONS vector ICONS FREE --><svg version="1.1" id="Capa_1" xmlns="http://www.w3.org/2000/svg" xmlns:xlink="http://www.w3.org/1999/xlink" x="0px" y="0px" viewBox="0 0 512 512" style="enable-background:new 0 0 512 512;" xml:space="preserve"><g><g><path d="M465,30H255c-24.874,0-45,21.098-45,46v48.542c-4.725-1.665-9.764-2.531-14.944-2.539c-0.019,0-0.037-0.003-0.056-0.003 h-60H75c-41.355,0-75,33.645-75,75v120c0,19.579,12.573,36.268,30.065,42.442C30.029,360.291,30,361.142,30,362 c0,14.043,4.863,26.964,12.975,37.198C17.597,411.233,0,437.097,0,467v30c0,8.284,6.716,15,15,15c8.212,0,440.973,0,450,0 c8.284,0,15-6.716,15-15v-30c0-29.903-17.597-55.767-42.975-67.802C445.137,388.964,450,376.043,450,362c0-33.084-26.916-60-60-60 s-60,26.916-60,60c0,14.043,4.863,26.964,12.975,37.198c-11.08,5.255-20.679,13.14-27.975,22.854 c-7.296-9.714-16.895-17.599-27.975-22.854C295.137,388.964,300,376.043,300,362c0-33.084-26.916-60-60-60 c-10.925,0-21.167,2.949-30,8.072v-39.449l7.551,11.326c7.503,11.277,19.54,18.506,32.954,19.825 c1.473,0.151,2.943,0.225,4.495,0.225c11.843,0,23.439-4.805,31.817-13.183L303.635,272H465c25.477,0,47-20.607,47-45V76 C512,51.495,490.037,30,465,30z M390,332c16.542,0,30,13.458,30,30s-13.458,30-30,30s-30-13.458-30-30S373.458,332,390,332z M330,467c0-24.813,20.187-45,45-45h30c24.813,0,45,20.187,45,45v15H330V467z M150,482H30v-15c0-24.813,20.187-45,45-45h30 c24.813,0,45,20.187,45,45V482z M60,362c0-16.542,13.458-30,30-30s30,13.458,30,30s-13.458,30-30,30S60,378.542,60,362z M300,467 v15H180v-15c0-24.813,20.187-45,45-45h30C279.813,422,300,442.187,300,467z M240,332c16.542,0,30,13.458,30,30s-13.458,30-30,30 s-30-13.458-30-30S223.458,332,240,332z M325.604,207.604l-38.786,38.787c-0.002,0.001-0.004,0.003-0.005,0.005l-21.208,21.208 c-3.158,3.159-7.681,4.773-12.095,4.321c-4.484-0.441-8.487-2.845-10.989-6.605l-35.039-52.559 c-0.005-0.007-0.01-0.014-0.015-0.021c-8.074-12.029-27.466-6.778-27.466,8.341v163.945v22.014 c-5.678,4.272-10.733,9.33-15,15.011c-7.296-9.714-16.895-17.599-27.975-22.854C145.137,388.964,150,376.043,150,362 c0-33.084-26.916-60-60-60V197c0-8.284-6.716-15-15-15s-15,6.716-15,15v113.072c-8.638,5.01-15.922,12.101-21.146,20.596 C33.643,328.315,30,323.08,30,317V197c0-24.813,20.187-45,45-45h120c0.092,0,0.182-0.012,0.274-0.014 c9.217,0.173,12.276,6.798,17.273,14.293c0.01,0.014,0.019,0.029,0.028,0.043l34.602,51.903c2.493,3.739,6.53,6.163,11.001,6.606 c4.473,0.444,8.906-1.141,12.084-4.318l34.133-34.119c5.866-5.865,15.342-5.865,21.209,0 C331.47,192.264,331.469,201.738,325.604,207.604z M482,227c0,7.71-8.262,15-17,15H333.635l13.183-13.183 c17.59-17.589,17.592-46.044,0-63.635c-17.588-17.587-46.041-17.593-63.633-0.002l-21.193,21.184L240,153.376V76 c0-8.523,7.009-16,15-16h210c8.579,0,17,7.925,17,16V227z"></path></g></g><g><g><path d="M135,0c-33.084,0-60,26.916-60,60c0,33.607,27.477,62,60,62s60-28.393,60-62C195,26.916,168.084,0,135,0z M135,92 c-15.981,0-30-14.953-30-32c0-16.542,13.458-30,30-30s30,13.458,30,30C165,77.047,150.981,92,135,92z"></path></g></g></svg>