<svg width="106" height="107" viewBox="0 0 106 107" fill="none" xmlns="http://www.w3.org/2000/svg">
<path d="M61.4023 0.541906C33.3485 -3.60597 7.24561 16.5046 3.21285 45.3751C-0.819904 74.2455 18.724 101.108 46.7777 105.259C49.2463 105.624 51.6992 105.8 54.1233 105.8C79.2531 105.8 101.29 86.7555 104.967 60.4254C108.998 31.5549 89.4561 4.69207 61.4023 0.541906Z" fill="#824292"/>
<path fill-rule="evenodd" clip-rule="evenodd" d="M25.2163 86.01C27.2894 81.7684 30.5911 78.725 34.8838 76.7562C39.8276 74.4856 39.0143 70.603 40.9785 67.6647C40.8008 68.1335 40.6652 68.6365 40.5763 69.1716C40.3941 70.2577 40.1408 71.3347 39.9942 72.4277C39.7476 74.2707 38.7699 75.5352 37.2102 76.3812C36.9191 76.539 36.6369 76.7425 36.3258 76.8339C31.7776 78.1968 28.9602 81.6426 26.445 85.4658C24.3675 88.6213 22.4189 90.3843 21.8901 94.5253C21.6502 92.1541 21.8057 90.8805 20.7792 90.8439C22.3123 89.7623 22.8056 90.9399 25.2163 86.01ZM41.694 65.0969C42.0406 64.4818 42.4183 63.8781 42.8294 63.2836C43.7514 61.9505 44.3802 60.2402 44.638 58.6144C45.1268 55.5275 46.951 52.5435 48.7818 50.0443C51.5548 46.2577 52.6879 38.4467 51.7414 33.9192C51.6748 33.5991 51.5903 33.2813 51.5148 32.9634C53.0546 34.8956 52.7502 45.9215 50.4927 49.7973C49.7173 51.1304 47.8531 52.2165 47.3443 53.6708C46.3866 56.3964 47.3443 59.1449 50.2727 60.2973C46.9288 59.9292 45.169 62.6228 41.694 65.0969Z" fill="white" stroke="white" stroke-width="2" stroke-miterlimit="10"/>
<path fill-rule="evenodd" clip-rule="evenodd" d="M63.4797 4.3948C64.7573 5.1951 65.3861 6.14861 65.3728 7.15471C64.293 5.25227 59.9958 2.87422 55.6631 4.57544C53.2812 5.51065 54.0189 7.66691 52.6213 9.57621C52.4635 9.79115 52.3324 9.99466 52.2213 10.1913C51.7725 7.40852 52.2525 4.68291 55.5786 3.3887C58.1627 2.4855 61.1467 2.93367 63.4797 4.3948ZM63.2842 10.4222C61.4289 10.6486 59.7536 9.06173 57.4495 9.66767C55.6964 10.1273 57.3984 12.6562 57.4317 14.7165C57.4539 16.0838 56.6474 16.6875 55.7231 17.0511C55.2587 17.234 55.9764 16.8499 54.1944 14.5678C54.0233 14.3506 53.6456 14.1425 53.2412 13.9276C53.99 16.0564 54.7721 17.7874 54.4699 18.3224C53.7656 19.3056 52.9612 19.0244 51.8147 20.7485C48.8574 25.1982 46.5955 33.1715 42.4539 36.4093C37.5923 40.5847 38.2122 42.183 34.4839 48.0069C36.2103 45.869 37.4301 42.901 38.8033 41.074C39.8031 39.7455 40.7541 38.1929 42.0917 37.3468C45.3534 35.2798 47.402 31.7676 49.2595 28.4497C50.2594 26.6616 52.9635 19.811 56.1963 20.4924C56.2186 20.3964 54.6677 20.0031 55.0121 18C55.3742 17.7668 55.7786 17.481 56.2052 17.2363C61.4956 14.2043 56.1008 12.4642 58.5005 10.2576C58.7404 10.0358 59.447 10.1113 59.8158 10.3079C61.7622 11.3529 62.0644 11.513 63.2842 10.4222Z" fill="white" stroke="white" stroke-width="2" stroke-miterlimit="10"/>
<path fill-rule="evenodd" clip-rule="evenodd" d="M71.5365 72.0778C70.4188 67.2188 66.455 63.5969 63.2932 59.9315C61.5757 57.9399 59.9848 55.8293 58.3806 53.7348C57.4696 52.5435 57.9073 49.8339 58.7361 48.5191C59.9537 46.5915 60.3381 45.3911 60.8602 42.7775C62.3711 35.202 65.1618 35.8308 64.493 32.154C61.2557 28.1662 60.458 25.4474 58.165 21.4047C59.807 23.4261 61.5734 27 64.1197 29.6044C66.2528 31.7858 65.9506 34.4269 63.5576 36.8323C62.7244 37.6692 61.8645 39.4734 61.5712 42.2676C61.1513 46.2691 59.5693 48.7615 60.187 52.4406C60.2158 52.6144 69.7056 65.9726 70.981 68.0031C73.1829 71.5108 73.2451 69.9971 73.5962 74.0603C73.7162 75.4323 74.105 80.7189 74.2516 82.0863C73.4317 76.7333 72.6652 76.9757 71.5365 72.0778Z" fill="white" stroke="white" stroke-width="2" stroke-miterlimit="10"/>
<path fill-rule="evenodd" clip-rule="evenodd" d="M54.9343 29.0671C51.3615 29.8354 50.5327 34.1913 48.1642 37.1022C45.2802 40.6464 41.6318 44.6456 38.4767 47.9383C38.1056 48.3248 37.8479 48.7455 37.6546 49.1891C36.9436 47.7325 31.6754 52.7928 30.5534 54.3819C32.3176 50.9018 42.2561 43.7196 45.469 39.4757C47.7354 36.4802 51.0327 28.907 54.9343 29.0671ZM36.8347 51.4345C34.7439 51.526 32.7931 54.7638 33.4752 56.9658C34.1995 52.3835 37.0969 50.6891 35.4193 54.9261C35.3127 55.1983 35.4882 55.5733 35.8504 55.196C36.5281 53.8514 36.5125 52.651 36.8347 51.4345ZM31.5643 58.7493C31.4644 58.7562 31.3644 58.7539 31.2644 58.7402C28.8114 58.4818 29.7446 55.9117 30.309 55.0336C30.1445 56.7143 30.0446 57.5786 31.5643 58.7493Z" fill="white" stroke="white" stroke-width="2" stroke-miterlimit="10"/>
<path fill-rule="evenodd" clip-rule="evenodd" d="M52.2947 61.4406C53.1612 62.1952 54.0789 62.8949 54.881 63.7135C59.047 67.9734 63.733 71.1312 68.1169 74.9086C69.1434 75.7935 69.0701 76.3355 68.9056 78.071C68.4102 83.3462 70.4743 87.709 70.9076 92.6C69.5744 86.6183 66.8681 82.5847 67.968 77.9567C68.6301 75.4345 63.9508 73.0199 63.4442 72.7066C61.1867 71.3118 54.6388 65.8675 52.2947 61.4406Z" fill="white" stroke="white" stroke-width="2" stroke-miterlimit="10"/>
<path fill-rule="evenodd" clip-rule="evenodd" d="M0.486572 105.622C1.06205 104.06 1.62641 102.522 2.19966 100.985C2.24188 100.873 2.30409 100.749 2.39074 100.674C6.51015 97.132 9.28531 92.4582 12.2404 87.9788C19.515 76.9437 18.7351 77.8698 25.9096 66.7638C26.9295 65.1861 29.0914 61.8705 30.189 60.1922C29.8779 63.3888 4.04829 102.794 0.486572 105.622Z" fill="white" stroke="white" stroke-width="2" stroke-miterlimit="10"/>
<path fill-rule="evenodd" clip-rule="evenodd" d="M44.6669 77.1769C43.8425 78.382 42.6272 79.3766 41.4229 80.2158C40.032 81.1853 38.4767 81.9148 36.9613 82.683C33.4107 84.4803 30.3245 86.9201 27.4271 89.7235C27.5982 89.4216 27.7449 89.0992 27.9426 88.8157C30.1112 85.7036 36.0748 80.2981 39.6809 78.9856C45.1846 76.978 48.9374 71.2707 52.6946 66.6083C49.835 71.2455 45.4001 76.1091 44.6669 77.1769Z" fill="white" stroke="white" stroke-width="2" stroke-miterlimit="10"/>
<path fill-rule="evenodd" clip-rule="evenodd" d="M76.4757 51.9376C76.9268 51.2745 77.2667 50.7714 77.6067 50.2684C78.4332 49.0473 78.131 47.9909 76.769 47.4673C76.2713 47.2752 75.4492 46.8065 74.9293 46.6761C70.1722 43.8934 69.159 42.6837 66.5105 37.8659C68.0458 39.1853 69.6656 41.3095 71.0632 42.8712C73.7272 45.8461 77.0445 46.9002 80.904 46.4658C81.3128 46.42 81.7727 46.8636 82.2105 47.0809C81.9372 47.4238 81.6572 47.7623 81.3906 48.1121C80.9018 48.7524 80.3196 49.3469 79.9552 50.0557C79.1065 51.7112 78.4154 52.1822 76.4757 51.9376Z" fill="white" stroke="white" stroke-width="2" stroke-miterlimit="10"/>
<path fill-rule="evenodd" clip-rule="evenodd" d="M63.3509 77.792C60.4224 85.5527 57.3251 93.2242 52.4458 99.9697C52.6258 98.7875 52.7147 97.5802 53.0235 96.4346C53.1613 95.9292 53.8278 95.6023 54.1145 95.1084C55.4009 92.8904 56.7163 90.6861 57.8761 88.3972C59.3981 85.3904 60.7824 82.3103 62.2311 79.2646C62.4977 78.7021 62.7932 78.1533 63.0776 77.5977C63.1687 77.6617 63.2598 77.728 63.3509 77.792Z" fill="white" stroke="white" stroke-width="2" stroke-miterlimit="10"/>
<path fill-rule="evenodd" clip-rule="evenodd" d="M69.7567 63.8164C71.4854 60.3888 73.2118 56.9612 74.9382 53.5336C75.1893 55.5389 71.9142 62.1312 70.0456 64.0085C69.95 63.9445 69.8523 63.8804 69.7567 63.8164Z" fill="white" stroke="white" stroke-width="2" stroke-miterlimit="10"/>
<path fill-rule="evenodd" clip-rule="evenodd" d="M62.8599 11.7553C63.8731 11.1403 64.3885 10.3903 65.6239 10.1021C65.9616 11.2043 65.7395 11.689 65.6217 12.3339C64.6085 12.4596 64.4219 11.4581 62.8599 11.7553Z" fill="white" stroke="white" stroke-width="2" stroke-miterlimit="10"/>
<path fill-rule="evenodd" clip-rule="evenodd" d="M86.6676 100.864C86.672 100.987 86.712 101.445 86.7009 101.493C85.8966 102.409 85.35 103.416 82.5459 104.358C80.9395 104.897 79.1309 105.839 77.8755 104.659C76.5912 105.233 75.307 105.812 71.5231 103.674C71.8497 103.274 71.532 102.263 71.8786 102.48C72.2919 102.739 73.1095 103.658 76.0957 103.132C76.8601 102.997 78.0777 104.204 80.1529 104.136C83.2303 104.037 86.0921 102.581 86.6676 100.864Z" fill="white" stroke="white" stroke-width="2" stroke-miterlimit="10"/>
<path fill-rule="evenodd" clip-rule="evenodd" d="M72.5763 99.5077C73.2473 100.939 73.8205 101.134 74.3738 100.923C74.436 101.108 74.516 101.284 74.6271 101.412C73.8539 101.79 73.1006 101.886 72.4474 101.371C72.1252 101.115 72.4696 99.2768 72.5763 99.5077Z" fill="white" stroke="white" stroke-width="2" stroke-miterlimit="10"/>
<path fill-rule="evenodd" clip-rule="evenodd" d="M72.9784 97.2829C75.938 94.9209 75.0736 91.8523 74.8492 88.7265C75.7691 91.6785 75.8957 97.1617 77.6066 97.587C79.0197 98.8149 81.5749 99.5741 84.4767 99.4071C85.1678 99.3683 85.5655 99.286 86.1654 99.5535C86.8964 99.8782 85.8099 100.619 83.9501 100.107C80.4618 99.1488 78.4154 99.2585 77.831 99.4346C76.6668 99.5878 76.5023 99.1922 76.4512 98.911V98.9064C76.449 98.8904 76.4468 98.8721 76.4468 98.8561C76.1535 95.1472 74.6337 95.8264 72.9784 97.2829Z" fill="white" stroke="white" stroke-width="2" stroke-miterlimit="10"/>
<path fill-rule="evenodd" clip-rule="evenodd" d="M19.2172 91.4727C18.8773 90.6838 17.6241 91.539 16.1443 92.0604C14.9312 92.488 13.7558 92.7029 13.6025 92.9796C12.9203 94.2189 14.3912 97.2692 15.42 98.9864C15.8932 99.7753 16.4643 99.6038 16.4687 99.773C16.5332 102.069 17.2197 102.864 19.1839 104.406C19.686 104.799 20.757 105.967 21.3636 106.013C22.1235 106.073 23.8454 106.365 24.0565 104.815C22.439 105.638 21.3325 105.208 20.2237 104.198C16.1754 100.512 18.3707 102.377 15.6799 96.5581C13.7113 92.2982 16.902 93.9582 18.2151 91.6511C18.6195 90.9422 19.2372 91.5185 19.2172 91.4727Z" fill="white" stroke="white" stroke-width="2" stroke-miterlimit="10"/>
<path fill-rule="evenodd" clip-rule="evenodd" d="M22.6301 98.0489C22.5657 99.318 21.9258 101.026 22.0324 102.313C22.0591 102.643 22.6145 102.81 22.7634 103.07C22.3346 103.388 21.5458 103.178 21.3592 102.524C21.1525 101.806 21.0992 100.717 21.2081 99.7273C21.5391 96.7227 20.2727 96.0276 20.2838 96.0344C20.7459 96.3934 22.6657 97.3744 22.6301 98.0489Z" fill="white" stroke="white" stroke-width="2" stroke-miterlimit="10"/>
<path fill-rule="evenodd" clip-rule="evenodd" d="M64.9751 8.5358C65.1462 8.33458 65.224 8.298 65.2751 7.89784C64.333 6.51217 61.0512 4.77207 58.7582 5.11049C54.7032 5.71186 56.0497 7.99845 53.7056 10.9482C53.1079 11.6982 52.5391 11.7599 52.5591 11.7553C54.5077 11.25 54.8166 11.1928 55.5787 8.99312C56.4897 6.37269 60.8424 5.3643 64.9751 8.5358Z" fill="white" stroke="white" stroke-width="2" stroke-miterlimit="10"/>
<path fill-rule="evenodd" clip-rule="evenodd" d="M64.5352 9.08918C61.7445 8.84222 57.9917 5.71874 56.2942 9.80716C56.8719 8.63186 58.8894 8.29801 59.9626 8.83079C61.5023 9.59451 63.7465 9.71799 64.5352 9.08918Z" fill="white" stroke="white" stroke-width="2" stroke-miterlimit="10"/>
<path fill-rule="evenodd" clip-rule="evenodd" d="M51.7237 12.407C50.7216 12.2447 49.2796 13.2759 48.8685 14.7165C48.2908 16.7378 47.0821 22.8041 45.3135 23.3941C45.4135 23.4329 46.5911 22.5206 47.4021 22.3079C50.9927 21.3682 48.5708 15.5099 51.2749 12.9649C51.8481 12.4253 51.4659 12.3659 51.7237 12.407Z" fill="white" stroke="white" stroke-width="2" stroke-miterlimit="10"/>
<path fill-rule="evenodd" clip-rule="evenodd" d="M65.9506 14.7256C65.9328 14.8445 65.8084 14.904 65.7217 14.9131C64.7441 15.0206 65.6617 16.1479 64.9485 16.2805C65.0462 16.5297 65.6084 16.7515 64.8663 17.3552C64.2153 17.8857 65.3195 19.4177 63.1021 18.9718C61.6801 18.686 60.6602 18.2081 60.0647 17.7599C60.0247 17.7828 59.9692 17.8102 59.8914 17.8445C59.527 18.0046 58.6227 20.0442 58.6494 19.9368C58.7205 19.6441 59.0693 16.8842 59.5048 17.1563L59.5093 17.1585C59.5181 17.1654 59.527 17.1723 59.5359 17.1791C60.9691 18.3544 62.2222 18.4802 62.9199 18.4985C63.8286 18.5214 64.2752 18.9558 64.4152 17.2249C64.3441 16.7858 63.882 16.9322 63.7042 16.1387C63.8375 15.9421 65.0796 16.1067 65.024 15.8117C64.9707 15.5282 64.5574 14.9451 64.6752 14.3895C64.7263 14.154 65.404 14.2317 65.3262 13.9436C65.244 13.6326 65.2618 13.0495 65.3595 12.6883C65.4906 14.1105 65.8061 14.1951 65.9506 14.7256Z" fill="white" stroke="white" stroke-width="2" stroke-miterlimit="10"/>
</svg>
